<svg id="svg" version="1.1" xmlns="http://www.w3.org/2000/svg" xmlns:xlink="http://www.w3.org/1999/xlink" width="400" height="400" viewBox="0, 0, 400,400"><g id="svgg"><path id="path0" d="M193.100 73.833 C 192.944 73.989,191.598 74.260,190.109 74.435 C 187.287 74.767,184.782 75.257,182.400 75.943 C 181.630 76.165,180.550 76.463,180.000 76.606 C 178.942 76.882,177.458 77.461,176.305 78.047 C 175.923 78.241,175.415 78.400,175.176 78.400 C 173.933 78.400,160.607 85.889,159.600 87.153 C 159.490 87.292,158.723 87.909,157.895 88.526 C 153.092 92.107,145.389 101.171,142.367 106.800 C 141.835 107.790,141.310 108.690,141.199 108.800 C 141.089 108.910,140.797 109.450,140.550 110.000 C 140.303 110.550,139.696 111.900,139.200 113.000 C 132.573 127.706,131.744 145.790,136.983 161.400 C 138.199 165.023,141.209 171.394,142.875 173.872 C 143.494 174.792,144.000 175.645,144.000 175.767 C 144.000 175.890,144.257 176.308,144.572 176.695 C 144.886 177.083,146.220 178.840,147.536 180.600 C 155.702 191.523,168.847 200.250,182.700 203.946 C 189.166 205.672,190.267 205.790,199.800 205.790 C 210.366 205.790,212.375 205.488,221.600 202.511 C 226.879 200.808,238.620 194.514,240.400 192.434 C 240.510 192.305,241.768 191.210,243.196 190.000 C 247.666 186.212,254.559 178.137,256.441 174.482 C 256.748 173.887,257.093 173.310,257.209 173.200 C 257.450 172.971,260.717 166.256,261.248 164.900 C 261.442 164.405,261.768 163.595,261.974 163.100 C 262.179 162.605,262.564 161.480,262.829 160.600 C 263.095 159.720,263.449 158.550,263.618 158.000 C 263.995 156.768,264.580 154.221,265.273 150.800 C 265.616 149.108,265.791 145.268,265.773 139.800 C 265.747 131.637,265.593 130.150,264.066 123.400 C 263.615 121.407,261.760 115.959,260.801 113.811 C 260.405 112.925,259.839 111.615,259.543 110.900 C 259.247 110.185,258.869 109.600,258.702 109.600 C 258.536 109.600,258.400 109.240,258.400 108.800 C 258.400 108.360,258.220 108.000,258.000 108.000 C 257.780 108.000,257.600 107.814,257.600 107.587 C 257.600 106.132,245.650 90.837,244.476 90.789 C 244.324 90.782,243.390 90.049,242.400 89.159 C 238.074 85.268,229.985 80.520,223.300 77.946 C 222.805 77.756,221.995 77.435,221.500 77.233 C 221.005 77.032,220.150 76.750,219.600 76.606 C 219.050 76.463,217.970 76.165,217.200 75.943 C 211.393 74.271,194.170 72.763,193.100 73.833 M192.731 243.402 C 192.589 243.545,190.970 243.825,189.136 244.025 C 182.847 244.711,180.292 245.220,172.000 247.442 C 166.956 248.793,157.685 252.391,153.800 254.505 C 150.749 256.165,148.472 257.380,147.703 257.759 C 147.210 258.001,146.805 258.335,146.803 258.500 C 146.801 258.665,146.607 258.800,146.372 258.800 C 146.137 258.800,145.159 259.340,144.200 260.000 C 143.241 260.660,142.278 261.200,142.061 261.200 C 141.844 261.200,141.607 261.345,141.533 261.523 C 141.460 261.701,140.511 262.453,139.425 263.194 C 133.917 266.953,123.339 276.758,118.923 282.200 C 115.393 286.549,111.403 292.190,109.657 295.298 C 109.227 296.064,108.633 297.120,108.338 297.645 C 108.042 298.170,107.702 298.690,107.582 298.800 C 107.362 299.002,104.203 305.422,103.055 308.000 C 101.852 310.701,100.066 315.618,99.025 319.093 C 97.178 325.264,96.918 326.409,95.234 335.800 C 94.998 337.120,94.519 338.410,94.170 338.668 C 93.543 339.130,94.583 340.798,95.500 340.801 C 95.665 340.801,96.430 341.341,97.200 342.000 C 97.970 342.659,98.785 343.199,99.012 343.199 C 99.238 343.200,99.683 343.560,100.000 344.000 C 100.317 344.440,100.831 344.800,101.141 344.800 C 101.452 344.800,101.997 345.116,102.353 345.503 C 102.709 345.889,103.495 346.460,104.100 346.770 C 104.705 347.081,105.200 347.485,105.200 347.668 C 105.200 347.850,105.436 348.000,105.725 348.000 C 106.013 348.000,106.598 348.315,107.025 348.700 C 107.451 349.085,108.295 349.655,108.900 349.968 C 109.505 350.280,110.000 350.685,110.000 350.868 C 110.000 351.050,110.371 351.200,110.824 351.200 C 111.277 351.200,111.536 351.380,111.400 351.600 C 111.264 351.820,111.441 352.000,111.793 352.000 C 112.145 352.000,112.820 352.360,113.292 352.800 C 113.764 353.240,114.387 353.600,114.675 353.600 C 114.964 353.600,115.200 353.780,115.200 354.000 C 115.200 354.220,115.560 354.400,116.000 354.400 C 116.440 354.400,116.800 354.580,116.800 354.800 C 116.800 355.020,117.145 355.200,117.567 355.200 C 117.988 355.200,118.393 355.335,118.467 355.500 C 118.698 356.021,121.870 357.597,122.141 357.326 C 122.283 357.183,122.400 357.277,122.400 357.533 C 122.400 357.790,122.760 358.000,123.200 358.000 C 123.640 358.000,124.000 358.180,124.000 358.400 C 124.000 358.620,124.360 358.800,124.800 358.800 C 125.240 358.800,125.600 358.980,125.600 359.200 C 125.600 359.420,125.960 359.600,126.400 359.600 C 126.840 359.600,127.200 359.791,127.200 360.024 C 127.200 360.257,127.365 360.345,127.568 360.220 C 127.770 360.095,128.207 360.264,128.539 360.596 C 128.871 360.928,129.390 361.200,129.692 361.200 C 130.450 361.200,132.393 362.134,132.397 362.500 C 132.399 362.665,132.760 362.800,133.200 362.800 C 133.640 362.800,134.000 362.980,134.000 363.200 C 134.000 363.420,134.414 363.600,134.920 363.600 C 135.974 363.600,137.992 364.453,137.997 364.900 C 137.999 365.065,138.529 365.200,139.176 365.200 C 139.823 365.200,140.464 365.380,140.600 365.600 C 140.736 365.820,141.197 366.000,141.624 366.000 C 142.051 366.000,142.400 366.180,142.400 366.400 C 142.400 366.620,142.839 366.800,143.376 366.800 C 143.913 366.800,144.464 366.980,144.600 367.200 C 144.736 367.420,145.276 367.600,145.800 367.600 C 146.324 367.600,146.864 367.780,147.000 368.000 C 147.136 368.220,147.676 368.400,148.200 368.400 C 148.724 368.400,149.264 368.580,149.400 368.800 C 149.536 369.020,150.177 369.200,150.824 369.200 C 151.471 369.200,152.000 369.380,152.000 369.600 C 152.000 369.820,152.529 370.000,153.176 370.000 C 153.823 370.000,154.464 370.180,154.600 370.400 C 154.736 370.620,155.467 370.800,156.224 370.800 C 156.981 370.800,157.600 370.980,157.600 371.200 C 157.600 371.420,158.219 371.600,158.976 371.600 C 159.733 371.600,160.447 371.752,160.562 371.939 C 160.677 372.125,161.330 372.293,162.013 372.313 C 162.697 372.332,163.468 372.520,163.728 372.731 C 164.149 373.073,165.379 373.290,169.400 373.732 C 170.060 373.805,171.230 374.070,172.000 374.320 C 172.770 374.571,174.238 374.737,175.262 374.688 C 176.286 374.640,177.040 374.735,176.938 374.900 C 176.836 375.065,178.103 375.200,179.753 375.200 C 181.403 375.200,182.864 375.380,183.000 375.600 C 183.142 375.831,185.271 376.000,188.024 376.000 C 191.027 376.000,192.800 376.153,192.800 376.411 C 192.800 376.683,196.197 376.810,202.800 376.786 C 208.731 376.765,212.800 376.598,212.800 376.375 C 212.800 376.164,214.795 376.000,217.376 376.000 C 219.996 376.000,222.058 375.829,222.200 375.600 C 222.336 375.380,223.797 375.200,225.447 375.200 C 227.135 375.200,228.349 375.042,228.224 374.838 C 228.097 374.634,228.659 374.565,229.514 374.679 C 230.346 374.791,231.972 374.602,233.127 374.259 C 234.282 373.916,235.476 373.731,235.782 373.848 C 236.088 373.966,236.733 373.850,237.217 373.591 C 237.701 373.332,238.705 373.120,239.448 373.120 C 240.192 373.120,240.800 372.958,240.800 372.760 C 240.800 372.562,241.484 372.400,242.320 372.400 C 243.156 372.400,244.011 372.237,244.220 372.037 C 244.429 371.838,245.320 371.554,246.200 371.406 C 247.080 371.259,248.385 371.042,249.100 370.925 C 249.815 370.808,250.400 370.552,250.400 370.356 C 250.400 370.160,250.994 370.000,251.720 370.000 C 252.446 370.000,253.215 369.825,253.429 369.611 C 253.642 369.398,254.173 369.155,254.609 369.072 C 255.502 368.901,256.619 368.508,257.807 367.946 C 258.251 367.736,259.016 367.534,259.507 367.497 C 259.998 367.460,260.400 367.288,260.400 367.115 C 260.400 366.942,260.951 366.800,261.624 366.800 C 262.337 366.800,262.744 366.633,262.600 366.400 C 262.460 366.174,262.788 366.000,263.353 366.000 C 263.903 366.000,264.464 365.820,264.600 365.600 C 264.736 365.380,265.287 365.200,265.824 365.200 C 266.361 365.200,266.800 365.020,266.800 364.800 C 266.800 364.580,267.239 364.400,267.776 364.400 C 268.313 364.400,268.864 364.220,269.000 364.000 C 269.136 363.780,269.597 363.600,270.024 363.600 C 270.451 363.600,270.800 363.420,270.800 363.200 C 270.800 362.980,271.149 362.800,271.576 362.800 C 272.003 362.800,272.464 362.620,272.600 362.400 C 272.736 362.180,273.197 362.000,273.624 362.000 C 274.051 362.000,274.400 361.820,274.400 361.600 C 274.400 361.380,274.760 361.200,275.200 361.200 C 275.640 361.200,276.001 361.065,276.003 360.900 C 276.007 360.541,277.944 359.600,278.680 359.600 C 278.966 359.600,279.200 359.420,279.200 359.200 C 279.200 358.980,279.472 358.800,279.805 358.800 C 280.138 358.800,280.723 358.629,281.105 358.420 C 281.487 358.212,282.970 357.493,284.400 356.823 C 287.327 355.452,289.119 354.437,289.916 353.701 C 290.213 353.426,290.893 353.091,291.428 352.957 C 291.963 352.823,292.400 352.553,292.400 352.357 C 292.400 352.160,292.636 352.000,292.925 352.000 C 293.213 352.000,293.836 351.640,294.308 351.200 C 294.780 350.760,295.455 350.400,295.807 350.400 C 296.159 350.400,296.336 350.220,296.200 350.000 C 296.064 349.780,296.233 349.600,296.576 349.600 C 296.919 349.600,297.200 349.420,297.200 349.200 C 297.200 348.980,297.560 348.800,298.000 348.800 C 298.440 348.800,298.800 348.650,298.800 348.468 C 298.800 348.285,299.295 347.880,299.900 347.568 C 300.505 347.255,301.417 346.592,301.926 346.092 C 302.435 345.593,302.987 345.269,303.153 345.371 C 303.319 345.473,303.707 345.207,304.015 344.779 C 304.324 344.350,304.780 344.000,305.029 344.000 C 305.278 344.000,306.046 343.460,306.737 342.800 C 307.428 342.140,308.129 341.597,308.296 341.594 C 310.655 341.544,312.040 336.968,310.300 334.976 C 309.797 334.401,309.279 333.120,309.126 332.073 C 308.746 329.480,307.789 325.267,306.794 321.800 C 306.541 320.920,306.238 319.703,306.121 319.095 C 306.004 318.487,305.749 317.892,305.554 317.771 C 305.359 317.651,305.200 317.201,305.200 316.771 C 305.200 316.341,305.034 315.677,304.831 315.295 C 304.628 314.913,303.880 313.070,303.169 311.200 C 300.663 304.608,292.718 289.956,290.807 288.400 C 290.672 288.290,290.131 287.570,289.606 286.800 C 285.247 280.416,275.990 271.002,268.800 265.641 C 267.150 264.411,265.710 263.299,265.600 263.170 C 265.157 262.651,259.210 258.800,258.851 258.800 C 258.640 258.800,258.407 258.665,258.333 258.500 C 258.129 258.041,250.759 254.198,245.934 252.036 C 243.294 250.852,234.697 247.814,232.000 247.112 C 225.856 245.511,222.462 244.827,216.400 243.970 C 212.971 243.484,193.125 243.008,192.731 243.402 " stroke="none" fill="#f3f3f4" fill-rule="evenodd"></path><path id="path1" d="M191.200 22.800 C 191.200 23.046,189.192 23.200,185.976 23.200 C 182.596 23.200,180.840 23.341,181.000 23.600 C 181.157 23.854,180.071 24.000,178.024 24.000 C 176.251 24.000,174.800 24.154,174.800 24.343 C 174.800 24.531,173.315 24.810,171.500 24.963 C 167.874 25.267,167.314 25.342,163.800 25.998 C 162.480 26.245,160.725 26.545,159.900 26.665 C 159.075 26.786,158.400 27.045,158.400 27.242 C 158.400 27.439,157.680 27.600,156.800 27.600 C 155.920 27.600,155.200 27.780,155.200 28.000 C 155.200 28.220,154.808 28.400,154.328 28.400 C 153.408 28.400,151.072 29.060,149.905 29.649 C 149.523 29.842,148.769 30.000,148.229 30.000 C 147.689 30.000,147.136 30.180,147.000 30.400 C 146.864 30.620,146.324 30.800,145.800 30.800 C 145.276 30.800,144.736 30.980,144.600 31.200 C 144.464 31.420,143.924 31.600,143.400 31.600 C 142.876 31.600,142.336 31.780,142.200 32.000 C 142.064 32.220,141.423 32.400,140.776 32.400 C 140.129 32.400,139.600 32.580,139.600 32.800 C 139.600 33.020,139.240 33.200,138.800 33.200 C 138.360 33.200,138.000 33.380,138.000 33.600 C 138.000 33.820,137.645 34.000,137.212 34.000 C 136.779 34.000,135.783 34.360,135.000 34.800 C 134.217 35.240,133.131 35.600,132.588 35.600 C 132.045 35.600,131.600 35.780,131.600 36.000 C 131.600 36.220,131.240 36.400,130.800 36.400 C 130.360 36.400,130.000 36.580,130.000 36.800 C 130.000 37.020,129.640 37.200,129.200 37.200 C 128.760 37.200,128.400 37.380,128.400 37.600 C 128.400 37.820,127.950 38.000,127.400 38.000 C 126.850 38.000,126.400 38.180,126.400 38.400 C 126.400 38.620,126.040 38.800,125.600 38.800 C 125.160 38.800,124.800 38.980,124.800 39.200 C 124.800 39.420,124.440 39.600,124.000 39.600 C 123.560 39.600,123.200 39.780,123.200 40.000 C 123.200 40.220,122.840 40.400,122.400 40.400 C 121.960 40.400,121.600 40.580,121.600 40.800 C 121.600 41.020,121.240 41.200,120.800 41.200 C 120.360 41.200,120.000 41.380,120.000 41.600 C 120.000 41.820,119.651 42.000,119.224 42.000 C 118.797 42.000,118.348 42.160,118.227 42.356 C 118.106 42.551,117.522 42.833,116.928 42.982 C 116.335 43.131,115.388 43.580,114.824 43.980 C 113.801 44.706,111.928 45.804,109.100 47.336 C 108.275 47.783,107.600 48.295,107.600 48.474 C 107.600 48.653,107.280 48.800,106.888 48.800 C 106.497 48.800,105.917 49.160,105.600 49.600 C 105.283 50.040,104.743 50.400,104.400 50.400 C 104.057 50.400,103.517 50.760,103.200 51.200 C 102.883 51.640,102.343 52.000,102.000 52.000 C 101.657 52.000,101.117 52.360,100.800 52.800 C 100.483 53.240,100.020 53.600,99.771 53.600 C 99.522 53.600,98.784 54.095,98.132 54.700 C 97.479 55.305,96.687 55.860,96.372 55.932 C 96.057 56.005,95.656 56.320,95.480 56.632 C 95.304 56.945,94.584 57.490,93.880 57.845 C 93.176 58.200,92.229 58.909,91.775 59.421 C 91.321 59.932,90.710 60.406,90.417 60.475 C 90.124 60.544,89.105 61.365,88.153 62.300 C 87.200 63.235,86.258 64.000,86.060 64.000 C 85.861 64.000,84.322 65.350,82.639 67.000 C 80.957 68.650,79.417 70.000,79.217 70.000 C 79.017 70.000,78.740 70.360,78.600 70.800 C 78.460 71.240,78.174 71.600,77.964 71.600 C 77.467 71.600,73.200 75.867,73.200 76.364 C 73.200 76.574,72.840 76.860,72.400 77.000 C 71.960 77.140,71.600 77.417,71.600 77.617 C 71.600 77.817,70.250 79.357,68.600 81.039 C 66.950 82.722,65.600 84.236,65.600 84.404 C 65.600 84.572,64.704 85.663,63.609 86.830 C 62.514 87.996,61.697 89.031,61.795 89.128 C 61.892 89.226,61.438 89.804,60.786 90.413 C 60.134 91.022,59.600 91.641,59.600 91.787 C 59.600 91.934,59.150 92.643,58.600 93.364 C 58.050 94.086,57.600 94.802,57.600 94.956 C 57.600 95.110,57.150 95.686,56.600 96.236 C 56.050 96.786,55.600 97.400,55.600 97.600 C 55.600 97.800,55.150 98.414,54.600 98.964 C 54.050 99.514,53.600 100.202,53.600 100.494 C 53.600 100.785,53.240 101.283,52.800 101.600 C 52.360 101.917,52.000 102.497,52.000 102.888 C 52.000 103.280,51.850 103.600,51.668 103.600 C 51.485 103.600,51.081 104.095,50.770 104.700 C 50.460 105.305,49.862 106.115,49.442 106.500 C 48.947 106.953,48.862 107.200,49.200 107.200 C 49.509 107.200,49.370 107.505,48.861 107.947 C 48.388 108.358,48.000 108.988,48.000 109.347 C 48.000 109.706,47.854 110.000,47.675 110.000 C 47.496 110.000,47.102 110.630,46.800 111.400 C 46.498 112.170,46.125 112.800,45.971 112.800 C 45.713 112.800,44.257 115.547,44.276 116.000 C 44.280 116.110,43.867 116.860,43.358 117.667 C 42.849 118.473,42.315 119.600,42.172 120.171 C 42.028 120.741,41.751 121.306,41.556 121.427 C 41.360 121.548,41.200 121.997,41.200 122.424 C 41.200 122.851,41.020 123.200,40.800 123.200 C 40.580 123.200,40.400 123.560,40.400 124.000 C 40.400 124.440,40.220 124.800,40.000 124.800 C 39.780 124.800,39.600 125.124,39.600 125.520 C 39.600 126.414,38.706 128.393,38.300 128.397 C 38.135 128.399,38.000 128.861,38.000 129.424 C 38.000 130.004,37.827 130.340,37.600 130.200 C 37.380 130.064,37.200 130.313,37.200 130.753 C 37.200 131.193,37.020 131.664,36.800 131.800 C 36.580 131.936,36.400 132.487,36.400 133.024 C 36.400 133.561,36.220 134.000,36.000 134.000 C 35.780 134.000,35.600 134.349,35.600 134.776 C 35.600 135.203,35.420 135.664,35.200 135.800 C 34.980 135.936,34.800 136.487,34.800 137.024 C 34.800 137.561,34.620 138.000,34.400 138.000 C 34.180 138.000,34.000 138.540,34.000 139.200 C 34.000 139.860,33.820 140.400,33.600 140.400 C 33.380 140.400,33.200 140.940,33.200 141.600 C 33.200 142.260,33.020 142.800,32.800 142.800 C 32.580 142.800,32.400 143.239,32.400 143.776 C 32.400 144.313,32.220 144.864,32.000 145.000 C 31.780 145.136,31.600 145.766,31.600 146.400 C 31.600 147.034,31.420 147.664,31.200 147.800 C 30.980 147.936,30.800 148.489,30.800 149.029 C 30.800 149.569,30.642 150.323,30.449 150.705 C 29.778 152.035,29.200 154.265,29.200 155.528 C 29.200 156.228,29.039 156.800,28.842 156.800 C 28.645 156.800,28.387 157.475,28.268 158.300 C 28.149 159.125,27.851 160.700,27.605 161.800 C 27.107 164.024,26.695 166.334,25.996 170.800 C 25.297 175.271,25.257 175.704,24.961 182.111 C 24.812 185.362,24.534 188.117,24.344 188.234 C 24.155 188.351,24.000 192.947,24.000 198.447 C 24.000 203.971,24.155 208.351,24.346 208.233 C 24.536 208.116,24.816 210.760,24.968 214.110 C 25.322 221.895,25.406 222.963,25.706 223.448 C 25.842 223.668,25.994 224.871,26.045 226.124 C 26.095 227.376,26.251 228.400,26.390 228.400 C 26.530 228.400,26.686 229.165,26.738 230.100 C 26.790 231.035,26.995 232.340,27.192 233.000 C 27.390 233.660,27.760 235.280,28.014 236.600 C 28.268 237.920,28.639 239.413,28.838 239.919 C 29.037 240.424,29.200 241.369,29.200 242.019 C 29.200 242.668,29.360 243.200,29.556 243.200 C 29.752 243.200,30.022 243.830,30.156 244.600 C 30.290 245.370,30.510 246.630,30.644 247.400 C 30.778 248.170,31.048 248.800,31.244 248.800 C 31.440 248.800,31.600 249.419,31.600 250.176 C 31.600 250.933,31.780 251.664,32.000 251.800 C 32.220 251.936,32.400 252.397,32.400 252.824 C 32.400 253.251,32.580 253.600,32.800 253.600 C 33.020 253.600,33.200 254.129,33.200 254.776 C 33.200 255.423,33.380 256.064,33.600 256.200 C 33.820 256.336,34.000 256.876,34.000 257.400 C 34.000 257.924,34.180 258.464,34.400 258.600 C 34.620 258.736,34.800 259.197,34.800 259.624 C 34.800 260.051,34.980 260.400,35.200 260.400 C 35.420 260.400,35.600 260.940,35.600 261.600 C 35.600 262.260,35.780 262.800,36.000 262.800 C 36.220 262.800,36.400 263.160,36.400 263.600 C 36.400 264.040,36.580 264.400,36.800 264.400 C 37.020 264.400,37.200 264.940,37.200 265.600 C 37.200 266.260,37.380 266.800,37.600 266.800 C 37.820 266.800,38.000 267.160,38.000 267.600 C 38.000 268.040,38.180 268.400,38.400 268.400 C 38.620 268.400,38.800 268.760,38.800 269.200 C 38.800 269.640,38.980 270.000,39.200 270.000 C 39.420 270.000,39.600 270.360,39.600 270.800 C 39.600 271.240,39.780 271.600,40.000 271.600 C 40.220 271.600,40.400 272.050,40.400 272.600 C 40.400 273.150,40.580 273.600,40.800 273.600 C 41.020 273.600,41.200 273.960,41.200 274.400 C 41.200 274.840,41.380 275.200,41.600 275.200 C 41.820 275.200,42.000 275.489,42.000 275.842 C 42.000 276.571,44.818 282.130,45.291 282.333 C 45.461 282.407,45.600 282.812,45.600 283.233 C 45.600 283.655,45.735 284.001,45.900 284.003 C 46.065 284.005,46.398 284.410,46.640 284.903 C 47.822 287.311,49.030 289.413,49.300 289.533 C 49.465 289.607,49.600 289.882,49.600 290.145 C 49.600 290.408,49.960 290.883,50.400 291.200 C 50.840 291.517,51.200 292.097,51.200 292.488 C 51.200 292.880,51.380 293.200,51.600 293.200 C 51.820 293.200,52.000 293.436,52.000 293.725 C 52.000 294.013,52.360 294.636,52.800 295.108 C 53.240 295.580,53.600 296.153,53.600 296.380 C 53.600 296.607,54.140 297.309,54.800 297.940 C 55.460 298.571,56.000 299.342,56.000 299.655 C 56.000 299.968,56.360 300.483,56.800 300.800 C 57.240 301.117,57.600 301.707,57.600 302.112 C 57.600 302.516,57.780 302.736,58.000 302.600 C 58.220 302.464,58.400 302.633,58.400 302.976 C 58.400 303.319,58.541 303.600,58.714 303.600 C 58.886 303.600,59.369 304.178,59.786 304.884 C 60.203 305.591,61.052 306.664,61.672 307.271 C 62.293 307.877,62.800 308.569,62.800 308.809 C 62.800 309.048,63.880 310.304,65.200 311.600 C 66.520 312.896,67.600 314.137,67.600 314.359 C 67.600 314.901,83.486 330.800,84.027 330.800 C 84.261 330.800,85.329 331.700,86.400 332.800 C 87.471 333.900,88.540 334.800,88.774 334.800 C 89.008 334.800,89.200 334.980,89.200 335.200 C 89.200 335.420,89.398 335.600,89.640 335.600 C 89.881 335.600,90.556 336.108,91.140 336.730 C 91.723 337.351,92.606 337.965,93.102 338.093 C 94.076 338.345,94.176 338.132,94.562 335.000 C 95.451 327.786,98.596 316.079,101.270 310.032 C 101.715 309.024,102.223 307.840,102.397 307.400 C 103.097 305.638,105.693 300.483,106.829 298.600 C 107.492 297.500,108.138 296.285,108.264 295.900 C 108.390 295.515,108.631 295.200,108.800 295.200 C 108.969 295.200,109.207 294.885,109.329 294.500 C 109.544 293.822,110.663 291.867,111.324 291.017 C 111.502 290.788,112.672 289.138,113.924 287.351 C 119.756 279.025,130.006 268.667,137.464 263.563 C 138.529 262.834,139.626 262.016,139.902 261.745 C 140.179 261.474,140.764 261.138,141.202 260.999 C 141.641 260.860,142.000 260.578,142.000 260.373 C 142.000 260.168,142.236 260.000,142.525 260.000 C 142.813 260.000,143.407 259.685,143.845 259.300 C 144.592 258.643,145.065 258.341,147.300 257.100 C 147.795 256.825,148.290 256.505,148.400 256.389 C 148.631 256.144,158.555 251.281,159.900 250.753 C 160.395 250.559,161.205 250.238,161.700 250.039 C 166.015 248.308,171.453 246.555,175.400 245.622 C 176.500 245.362,178.030 244.990,178.800 244.795 C 184.065 243.464,195.209 242.284,202.600 242.276 C 209.230 242.268,218.400 243.171,224.100 244.393 C 225.145 244.617,226.765 244.961,227.700 245.158 C 235.021 246.699,244.892 250.288,252.200 254.067 C 253.520 254.750,255.004 255.509,255.497 255.754 C 255.990 255.999,256.395 256.335,256.397 256.500 C 256.399 256.665,256.760 256.800,257.200 256.800 C 257.640 256.800,258.000 256.980,258.000 257.200 C 258.000 257.420,258.236 257.600,258.525 257.600 C 258.813 257.600,259.436 257.960,259.908 258.400 C 260.380 258.840,260.879 259.200,261.015 259.200 C 261.473 259.200,268.160 263.930,271.592 266.681 C 275.856 270.100,283.648 277.898,287.051 282.154 C 288.478 283.939,289.894 285.703,290.196 286.073 C 291.435 287.589,296.400 295.203,296.400 295.587 C 296.400 295.814,296.538 296.000,296.706 296.000 C 296.874 296.000,297.322 296.675,297.701 297.500 C 298.080 298.325,298.805 299.720,299.313 300.600 C 301.403 304.226,304.173 310.877,306.226 317.200 C 306.762 318.850,307.380 320.753,307.600 321.428 C 307.820 322.104,308.000 323.038,308.000 323.505 C 308.000 323.971,308.180 324.464,308.400 324.600 C 308.620 324.736,308.800 325.431,308.800 326.144 C 308.800 326.857,308.963 327.611,309.161 327.820 C 309.360 328.029,309.622 329.010,309.743 330.000 C 310.152 333.343,310.486 334.800,310.844 334.800 C 311.040 334.800,311.200 334.620,311.200 334.400 C 311.200 334.180,311.430 334.000,311.712 334.000 C 311.993 334.000,312.483 333.640,312.800 333.200 C 313.117 332.760,313.496 332.400,313.643 332.400 C 313.789 332.400,315.030 331.320,316.400 330.000 C 317.770 328.680,319.061 327.600,319.269 327.600 C 319.477 327.600,319.536 327.420,319.400 327.200 C 319.264 326.980,319.534 326.800,320.000 326.800 C 320.466 326.800,320.736 326.620,320.600 326.400 C 320.464 326.180,320.644 326.000,321.000 326.000 C 321.356 326.000,321.536 325.820,321.400 325.600 C 321.264 325.380,321.369 325.200,321.633 325.200 C 321.897 325.200,322.583 324.686,323.157 324.057 C 326.750 320.121,327.977 318.911,328.176 319.109 C 328.299 319.232,328.403 318.898,328.406 318.367 C 328.411 317.658,328.506 317.548,328.762 317.953 C 329.036 318.385,329.174 318.313,329.392 317.624 C 329.546 317.139,330.826 315.589,332.236 314.179 C 333.646 312.769,334.800 311.431,334.800 311.207 C 334.800 310.983,334.980 310.800,335.200 310.800 C 335.420 310.800,335.600 310.596,335.600 310.347 C 335.600 310.098,335.921 309.603,336.314 309.247 C 336.707 308.891,337.742 307.700,338.614 306.601 C 339.486 305.501,340.413 304.375,340.674 304.098 C 340.934 303.822,341.262 303.236,341.401 302.798 C 341.540 302.359,341.822 302.000,342.027 302.000 C 342.232 302.000,342.400 301.629,342.400 301.176 C 342.400 300.723,342.580 300.464,342.800 300.600 C 343.020 300.736,343.200 300.567,343.200 300.224 C 343.200 299.881,343.350 299.600,343.532 299.600 C 343.715 299.600,344.119 299.105,344.430 298.500 C 344.740 297.895,345.311 297.109,345.697 296.753 C 346.084 296.397,346.400 295.812,346.400 295.453 C 346.400 295.094,346.550 294.800,346.732 294.800 C 346.915 294.800,347.319 294.305,347.630 293.700 C 347.940 293.095,348.511 292.309,348.897 291.953 C 349.284 291.597,349.600 291.012,349.600 290.653 C 349.600 290.294,349.780 290.000,350.000 290.000 C 350.220 290.000,350.400 289.764,350.400 289.475 C 350.400 289.187,350.760 288.564,351.200 288.092 C 351.640 287.620,352.000 287.046,352.000 286.817 C 352.000 286.588,352.180 286.400,352.400 286.400 C 352.620 286.400,352.800 286.128,352.800 285.795 C 352.800 285.195,353.573 283.585,354.046 283.200 C 354.181 283.090,355.327 280.840,356.593 278.200 C 357.859 275.560,359.053 273.087,359.247 272.705 C 359.441 272.323,359.600 271.738,359.600 271.405 C 359.600 271.072,359.780 270.800,360.000 270.800 C 360.220 270.800,360.400 270.440,360.400 270.000 C 360.400 269.560,360.580 269.200,360.800 269.200 C 361.020 269.200,361.200 268.840,361.200 268.400 C 361.200 267.960,361.380 267.600,361.600 267.600 C 361.820 267.600,362.000 267.060,362.000 266.400 C 362.000 265.740,362.180 265.200,362.400 265.200 C 362.620 265.200,362.800 264.840,362.800 264.400 C 362.800 263.960,362.980 263.600,363.200 263.600 C 363.420 263.600,363.600 263.060,363.600 262.400 C 363.600 261.740,363.780 261.200,364.000 261.200 C 364.220 261.200,364.400 260.840,364.400 260.400 C 364.400 259.960,364.580 259.600,364.800 259.600 C 365.020 259.600,365.200 259.060,365.200 258.400 C 365.200 257.740,365.380 257.200,365.600 257.200 C 365.820 257.200,366.000 256.750,366.000 256.200 C 366.000 255.650,366.180 255.200,366.400 255.200 C 366.620 255.200,366.800 254.671,366.800 254.024 C 366.800 253.377,366.980 252.736,367.200 252.600 C 367.420 252.464,367.600 251.913,367.600 251.376 C 367.600 250.839,367.780 250.400,368.000 250.400 C 368.220 250.400,368.400 249.680,368.400 248.800 C 368.400 247.920,368.580 247.200,368.800 247.200 C 369.020 247.200,369.200 246.671,369.200 246.024 C 369.200 245.377,369.380 244.736,369.600 244.600 C 369.820 244.464,370.000 243.733,370.000 242.976 C 370.000 242.219,370.180 241.600,370.400 241.600 C 370.620 241.600,370.800 241.006,370.800 240.280 C 370.800 239.554,370.962 238.789,371.159 238.580 C 371.356 238.371,371.619 237.480,371.743 236.600 C 372.390 232.008,372.648 230.561,372.890 230.174 C 373.036 229.940,373.199 228.905,373.252 227.874 C 373.306 226.843,373.481 226.000,373.642 226.000 C 373.802 226.000,373.904 224.757,373.867 223.238 C 373.830 221.718,373.935 220.559,374.100 220.661 C 374.265 220.764,374.410 220.702,374.423 220.524 C 374.435 220.346,374.570 218.670,374.723 216.800 C 375.350 209.110,374.994 177.685,374.266 176.507 C 374.119 176.268,373.975 175.022,373.947 173.736 C 373.919 172.451,373.733 170.964,373.532 170.432 C 373.332 169.900,373.152 168.681,373.133 167.724 C 373.114 166.767,372.941 165.887,372.749 165.769 C 372.557 165.650,372.400 164.674,372.400 163.600 C 372.400 162.526,372.220 161.536,372.000 161.400 C 371.780 161.264,371.600 160.533,371.600 159.776 C 371.600 159.019,371.438 158.400,371.240 158.400 C 371.042 158.400,370.781 157.635,370.659 156.700 C 370.220 153.337,369.906 152.000,369.556 152.000 C 369.360 152.000,369.200 151.608,369.200 151.128 C 369.200 150.208,368.540 147.872,367.951 146.705 C 367.758 146.323,367.600 145.659,367.600 145.229 C 367.600 144.799,367.420 144.336,367.200 144.200 C 366.980 144.064,366.800 143.513,366.800 142.976 C 366.800 142.439,366.620 142.000,366.400 142.000 C 366.180 142.000,366.000 141.460,366.000 140.800 C 366.000 140.140,365.820 139.600,365.600 139.600 C 365.380 139.600,365.200 139.060,365.200 138.400 C 365.200 137.740,365.020 137.200,364.800 137.200 C 364.580 137.200,364.400 136.660,364.400 136.000 C 364.400 135.340,364.220 134.800,364.000 134.800 C 363.780 134.800,363.600 134.440,363.600 134.000 C 363.600 133.560,363.453 133.200,363.272 133.200 C 363.092 133.200,362.700 132.300,362.400 131.200 C 362.100 130.100,361.708 129.200,361.528 129.200 C 361.347 129.200,361.200 128.840,361.200 128.400 C 361.200 127.960,361.020 127.600,360.800 127.600 C 360.580 127.600,360.400 127.150,360.400 126.600 C 360.400 126.050,360.264 125.600,360.098 125.600 C 359.931 125.600,359.555 125.015,359.261 124.300 C 358.967 123.585,358.113 121.685,357.364 120.079 C 356.614 118.472,356.000 116.897,356.000 116.579 C 356.000 116.260,355.820 116.000,355.600 116.000 C 355.380 116.000,355.200 115.640,355.200 115.200 C 355.200 114.760,355.048 114.400,354.863 114.400 C 354.677 114.400,354.092 113.545,353.563 112.500 C 353.033 111.455,352.465 110.540,352.300 110.467 C 352.135 110.393,352.000 110.078,352.000 109.767 C 352.000 109.455,351.820 109.200,351.600 109.200 C 351.380 109.200,351.200 108.964,351.200 108.675 C 351.200 108.387,350.840 107.764,350.400 107.292 C 349.960 106.820,349.600 106.156,349.600 105.817 C 349.600 105.478,349.420 105.200,349.200 105.200 C 348.980 105.200,348.800 104.964,348.800 104.675 C 348.800 104.387,348.440 103.764,348.000 103.292 C 347.560 102.820,347.197 102.111,347.194 101.717 C 347.189 101.108,347.130 101.090,346.800 101.600 C 346.486 102.085,346.411 102.028,346.406 101.300 C 346.403 100.805,346.220 100.400,346.000 100.400 C 345.780 100.400,345.600 100.112,345.600 99.760 C 345.600 99.409,345.105 98.644,344.500 98.060 C 343.895 97.477,343.145 96.505,342.832 95.900 C 342.520 95.295,342.115 94.800,341.932 94.800 C 341.750 94.800,341.600 94.545,341.600 94.234 C 341.600 93.923,340.986 93.037,340.236 92.265 C 339.486 91.492,338.943 90.791,339.028 90.705 C 339.114 90.619,338.557 89.885,337.792 89.074 C 337.026 88.262,336.400 87.407,336.400 87.173 C 336.400 86.939,335.500 85.871,334.400 84.800 C 333.300 83.729,332.400 82.660,332.400 82.426 C 332.400 82.192,332.220 82.000,332.000 82.000 C 331.780 82.000,331.600 81.719,331.600 81.376 C 331.600 81.033,331.420 80.864,331.200 81.000 C 330.980 81.136,330.800 81.075,330.800 80.864 C 330.800 80.424,327.603 77.125,325.601 75.500 C 324.856 74.895,324.415 74.399,324.623 74.397 C 324.830 74.396,324.460 74.037,323.800 73.600 C 323.140 73.163,322.748 72.804,322.928 72.803 C 323.108 72.801,321.875 71.450,320.187 69.800 C 318.499 68.150,316.958 66.800,316.762 66.800 C 316.566 66.800,315.308 65.720,313.968 64.400 C 312.627 63.080,311.342 62.000,311.112 62.000 C 310.882 62.000,310.403 61.676,310.047 61.279 C 309.691 60.883,308.680 60.028,307.800 59.379 C 306.921 58.731,305.852 57.885,305.425 57.500 C 304.998 57.115,304.402 56.800,304.101 56.800 C 303.799 56.800,303.664 56.620,303.800 56.400 C 303.936 56.180,303.806 56.000,303.512 56.000 C 303.217 56.000,302.717 55.640,302.400 55.200 C 302.083 54.760,301.543 54.400,301.200 54.400 C 300.857 54.400,300.317 54.040,300.000 53.600 C 299.683 53.160,299.143 52.800,298.800 52.800 C 298.457 52.800,297.917 52.440,297.600 52.000 C 297.283 51.560,296.703 51.200,296.312 51.200 C 295.920 51.200,295.600 51.050,295.600 50.868 C 295.600 50.685,295.105 50.281,294.500 49.970 C 293.895 49.660,293.085 49.062,292.700 48.642 C 292.247 48.147,292.000 48.062,292.000 48.400 C 292.000 48.709,291.695 48.570,291.253 48.061 C 290.842 47.588,290.302 47.200,290.053 47.200 C 289.804 47.200,289.600 47.020,289.600 46.800 C 289.600 46.580,289.240 46.400,288.800 46.400 C 288.360 46.400,288.000 46.238,288.000 46.039 C 288.000 45.841,287.460 45.490,286.800 45.260 C 286.140 45.030,285.600 44.652,285.600 44.421 C 285.600 44.189,285.240 44.000,284.800 44.000 C 284.360 44.000,284.000 43.820,284.000 43.600 C 284.000 43.380,283.640 43.200,283.200 43.200 C 282.760 43.200,282.400 43.034,282.400 42.832 C 282.400 42.629,281.860 42.345,281.200 42.200 C 280.540 42.055,280.000 41.760,280.000 41.545 C 280.000 41.329,279.835 41.255,279.632 41.380 C 279.430 41.505,278.993 41.336,278.661 41.004 C 278.329 40.672,277.862 40.400,277.623 40.400 C 277.384 40.400,276.877 40.239,276.495 40.042 C 276.113 39.845,274.540 39.081,273.000 38.344 C 271.460 37.607,270.140 36.868,270.067 36.702 C 269.993 36.536,269.408 36.400,268.767 36.400 C 268.125 36.400,267.600 36.220,267.600 36.000 C 267.600 35.780,267.240 35.600,266.800 35.600 C 266.360 35.600,266.000 35.420,266.000 35.200 C 266.000 34.980,265.460 34.800,264.800 34.800 C 264.140 34.800,263.600 34.620,263.600 34.400 C 263.600 34.180,263.240 34.000,262.800 34.000 C 262.360 34.000,262.000 33.820,262.000 33.600 C 262.000 33.380,261.460 33.200,260.800 33.200 C 260.140 33.200,259.600 33.020,259.600 32.800 C 259.600 32.580,259.327 32.400,258.994 32.400 C 258.024 32.400,255.200 31.434,255.200 31.103 C 255.200 30.936,254.671 30.800,254.024 30.800 C 253.377 30.800,252.736 30.620,252.600 30.400 C 252.464 30.180,251.913 30.000,251.376 30.000 C 250.839 30.000,250.400 29.820,250.400 29.600 C 250.400 29.380,249.680 29.200,248.800 29.200 C 247.920 29.200,247.200 29.040,247.200 28.844 C 247.200 28.648,246.570 28.378,245.800 28.244 C 245.030 28.110,243.768 27.890,242.996 27.756 C 242.224 27.621,241.494 27.351,241.373 27.156 C 241.252 26.960,240.454 26.800,239.600 26.800 C 238.746 26.800,237.952 26.646,237.835 26.457 C 237.719 26.269,236.673 25.990,235.512 25.837 C 234.350 25.685,232.950 25.479,232.400 25.380 C 231.850 25.280,230.005 25.084,228.300 24.942 C 226.595 24.801,225.200 24.531,225.200 24.343 C 225.200 24.154,223.749 24.000,221.976 24.000 C 219.929 24.000,218.843 23.854,219.000 23.600 C 219.160 23.341,217.271 23.200,213.624 23.200 C 210.141 23.200,208.000 23.048,208.000 22.800 C 208.000 22.546,204.933 22.400,199.600 22.400 C 194.267 22.400,191.200 22.546,191.200 22.800 M206.400 73.214 C 208.490 73.397,211.190 73.748,212.400 73.994 C 213.610 74.240,215.276 74.541,216.103 74.663 C 216.929 74.785,217.705 75.045,217.826 75.242 C 217.948 75.439,218.476 75.600,219.000 75.600 C 219.524 75.600,220.064 75.780,220.200 76.000 C 220.336 76.220,220.876 76.400,221.400 76.400 C 221.924 76.400,222.464 76.580,222.600 76.800 C 222.736 77.020,223.109 77.200,223.428 77.200 C 224.862 77.200,234.641 82.168,237.400 84.298 C 237.620 84.467,238.270 84.907,238.844 85.276 C 239.418 85.644,240.138 86.182,240.444 86.472 C 240.750 86.763,241.720 87.538,242.600 88.195 C 244.970 89.964,250.641 95.828,252.856 98.800 C 253.921 100.230,255.152 101.850,255.591 102.400 C 256.030 102.950,256.392 103.610,256.395 103.867 C 256.398 104.123,256.535 104.393,256.700 104.467 C 257.121 104.654,258.096 106.400,260.237 110.800 C 263.577 117.665,265.000 122.229,266.411 130.600 C 266.957 133.837,266.707 148.216,266.050 151.400 C 265.823 152.500,265.440 154.300,265.200 155.400 C 264.961 156.500,264.661 157.897,264.536 158.505 C 264.410 159.113,264.149 159.708,263.954 159.829 C 263.759 159.949,263.600 160.399,263.600 160.829 C 263.600 161.259,263.441 161.923,263.247 162.305 C 262.903 162.981,262.363 164.266,261.651 166.100 C 261.121 167.465,259.438 170.973,259.205 171.200 C 259.091 171.310,258.735 171.940,258.412 172.600 C 255.775 177.999,246.150 189.344,241.600 192.417 C 240.830 192.937,239.930 193.642,239.600 193.984 C 239.270 194.326,238.505 194.860,237.900 195.170 C 237.295 195.481,236.800 195.885,236.800 196.068 C 236.800 196.250,236.607 196.400,236.372 196.400 C 236.137 196.400,235.192 196.915,234.272 197.545 C 220.187 207.189,195.967 209.703,177.800 203.406 C 172.635 201.616,162.999 196.724,161.600 195.182 C 161.490 195.061,160.770 194.522,160.000 193.985 C 159.230 193.448,158.078 192.512,157.441 191.904 C 156.803 191.297,156.164 190.800,156.020 190.800 C 155.531 190.800,148.830 183.809,147.011 181.400 C 146.013 180.080,144.840 178.550,144.404 178.000 C 143.968 177.450,143.608 176.775,143.605 176.500 C 143.602 176.225,143.465 176.000,143.299 176.000 C 143.134 176.000,142.553 175.145,142.009 174.100 C 141.465 173.055,140.925 172.110,140.810 172.000 C 140.353 171.564,138.800 168.290,138.800 167.762 C 138.800 167.453,138.620 167.200,138.400 167.200 C 138.180 167.200,138.000 166.928,138.000 166.595 C 138.000 166.262,137.820 165.632,137.600 165.195 C 137.380 164.758,137.020 164.042,136.800 163.605 C 136.580 163.168,136.400 162.536,136.400 162.200 C 136.400 161.864,136.242 161.277,136.049 160.895 C 135.467 159.741,134.242 155.195,133.653 152.000 C 131.928 142.643,132.196 133.471,134.464 124.200 C 135.021 121.924,136.364 117.578,136.874 116.400 C 137.112 115.850,137.444 115.040,137.611 114.600 C 141.103 105.412,148.451 95.363,156.768 88.400 C 163.108 83.093,172.420 77.959,179.200 76.033 C 180.190 75.752,181.313 75.360,181.695 75.161 C 182.077 74.962,182.896 74.800,183.515 74.800 C 184.134 74.800,184.811 74.637,185.020 74.439 C 186.163 73.352,199.359 72.596,206.400 73.214 " stroke="none" fill="#2494f4" fill-rule="evenodd"></path><path id="path2" d="M192.900 73.487 C 193.505 73.578,194.495 73.578,195.100 73.487 C 195.705 73.395,195.210 73.320,194.000 73.320 C 192.790 73.320,192.295 73.395,192.900 73.487 M204.500 73.487 C 205.105 73.578,206.095 73.578,206.700 73.487 C 207.305 73.395,206.810 73.320,205.600 73.320 C 204.390 73.320,203.895 73.395,204.500 73.487 M233.200 82.179 C 233.200 82.289,233.740 82.659,234.400 83.000 C 235.060 83.341,235.600 83.531,235.600 83.421 C 235.600 83.311,235.060 82.941,234.400 82.600 C 233.740 82.259,233.200 82.069,233.200 82.179 M159.400 86.635 L 158.200 87.666 159.500 86.806 C 160.215 86.333,160.800 85.868,160.800 85.773 C 160.800 85.473,160.631 85.578,159.400 86.635 M246.383 92.100 C 248.041 93.866,248.400 94.184,248.400 93.883 C 248.400 93.819,247.545 92.964,246.500 91.983 L 244.600 90.200 246.383 92.100 M264.856 125.600 C 264.856 125.930,265.011 126.560,265.200 127.000 C 265.417 127.504,265.544 127.578,265.544 127.200 C 265.544 126.870,265.389 126.240,265.200 125.800 C 264.983 125.296,264.856 125.222,264.856 125.600 M133.293 133.600 C 133.293 134.370,133.375 134.685,133.476 134.300 C 133.576 133.915,133.576 133.285,133.476 132.900 C 133.375 132.515,133.293 132.830,133.293 133.600 M132.953 139.800 C 132.953 142.440,133.018 143.468,133.097 142.084 C 133.175 140.701,133.174 138.541,133.095 137.284 C 133.016 136.028,132.952 137.160,132.953 139.800 M266.509 140.000 C 266.509 140.990,266.587 141.395,266.682 140.900 C 266.778 140.405,266.778 139.595,266.682 139.100 C 266.587 138.605,266.509 139.010,266.509 140.000 M133.293 146.400 C 133.293 147.170,133.375 147.485,133.476 147.100 C 133.576 146.715,133.576 146.085,133.476 145.700 C 133.375 145.315,133.293 145.630,133.293 146.400 M143.843 176.727 C 144.259 177.457,144.948 178.357,145.374 178.727 C 145.824 179.118,145.666 178.731,144.996 177.800 C 143.393 175.574,142.950 175.161,143.843 176.727 M149.800 184.400 C 150.659 185.280,151.452 186.000,151.562 186.000 C 151.672 186.000,151.059 185.280,150.200 184.400 C 149.341 183.520,148.548 182.800,148.438 182.800 C 148.328 182.800,148.941 183.520,149.800 184.400 M249.375 184.500 L 248.200 185.800 249.500 184.625 C 250.215 183.979,250.800 183.394,250.800 183.325 C 250.800 183.016,250.470 183.288,249.375 184.500 M154.800 189.400 C 155.546 190.170,156.247 190.800,156.357 190.800 C 156.467 190.800,155.946 190.170,155.200 189.400 C 154.454 188.630,153.753 188.000,153.643 188.000 C 153.533 188.000,154.054 188.630,154.800 189.400 M243.781 190.100 L 242.200 191.800 243.900 190.219 C 245.481 188.748,245.784 188.400,245.481 188.400 C 245.416 188.400,244.651 189.165,243.781 190.100 M197.516 206.697 C 198.899 206.775,201.059 206.774,202.316 206.695 C 203.572 206.616,202.440 206.552,199.800 206.553 C 197.160 206.553,196.132 206.618,197.516 206.697 M201.100 242.689 C 201.815 242.778,202.985 242.778,203.700 242.689 C 204.415 242.601,203.830 242.528,202.400 242.528 C 200.970 242.528,200.385 242.601,201.100 242.689 M191.705 243.087 C 192.314 243.179,193.214 243.177,193.705 243.082 C 194.197 242.987,193.700 242.911,192.600 242.914 C 191.500 242.917,191.097 242.995,191.705 243.087 M211.305 243.087 C 211.914 243.179,212.814 243.177,213.305 243.082 C 213.797 242.987,213.300 242.911,212.200 242.914 C 211.100 242.917,210.697 242.995,211.305 243.087 M218.433 243.747 C 218.525 243.828,219.320 244.004,220.200 244.138 C 221.315 244.307,221.558 244.271,221.000 244.019 C 220.232 243.671,218.090 243.444,218.433 243.747 M180.000 244.818 C 179.562 245.115,179.724 245.152,180.600 244.956 C 182.071 244.627,182.390 244.398,181.367 244.406 C 180.945 244.409,180.330 244.595,180.000 244.818 M128.000 271.800 C 127.028 272.790,126.323 273.600,126.433 273.600 C 126.543 273.600,127.428 272.790,128.400 271.800 C 129.372 270.810,130.077 270.000,129.967 270.000 C 129.857 270.000,128.972 270.810,128.000 271.800 M279.000 274.000 C 280.528 275.540,281.869 276.800,281.979 276.800 C 282.089 276.800,280.928 275.540,279.400 274.000 C 277.872 272.460,276.531 271.200,276.421 271.200 C 276.311 271.200,277.472 272.460,279.000 274.000 M122.786 277.100 L 120.600 279.400 122.900 277.214 C 125.037 275.182,125.383 274.800,125.086 274.800 C 125.024 274.800,123.989 275.835,122.786 277.100 M283.600 278.925 C 283.600 278.994,284.185 279.579,284.900 280.225 L 286.200 281.400 285.025 280.100 C 283.930 278.888,283.600 278.616,283.600 278.925 M109.014 295.035 C 108.641 295.604,108.405 296.138,108.489 296.222 C 108.573 296.307,108.958 295.841,109.344 295.188 C 110.206 293.728,109.948 293.609,109.014 295.035 " stroke="none" fill="#71baf4" fill-rule="evenodd"></path><path id="path3" d="M197.913 73.495 C 199.076 73.576,200.876 73.576,201.913 73.493 C 202.951 73.411,202.000 73.345,199.800 73.346 C 197.600 73.347,196.751 73.414,197.913 73.495 M190.000 74.000 L 188.600 74.295 190.200 74.319 C 191.080 74.333,192.160 74.189,192.600 74.000 C 193.642 73.552,192.126 73.552,190.000 74.000 M207.000 74.000 C 207.440 74.189,208.520 74.336,209.400 74.326 L 211.000 74.308 209.400 73.977 C 208.520 73.795,207.440 73.648,207.000 73.651 L 206.200 73.656 207.000 74.000 M185.600 74.800 L 184.600 75.120 185.600 75.154 C 186.150 75.173,186.870 75.013,187.200 74.800 C 187.964 74.306,187.142 74.306,185.600 74.800 M212.400 74.800 C 212.730 75.013,213.450 75.173,214.000 75.154 L 215.000 75.120 214.000 74.800 C 212.458 74.306,211.636 74.306,212.400 74.800 M182.200 75.600 L 181.400 75.944 182.200 75.966 C 182.640 75.978,183.270 75.813,183.600 75.600 C 184.395 75.086,183.396 75.086,182.200 75.600 M216.000 75.600 C 216.330 75.813,216.960 75.978,217.400 75.966 L 218.200 75.944 217.400 75.600 C 216.204 75.086,215.205 75.086,216.000 75.600 M179.400 76.400 L 178.600 76.744 179.400 76.766 C 179.840 76.778,180.470 76.613,180.800 76.400 C 181.595 75.886,180.596 75.886,179.400 76.400 M218.800 76.400 C 219.130 76.613,219.760 76.778,220.200 76.766 L 221.000 76.744 220.200 76.400 C 219.004 75.886,218.005 75.886,218.800 76.400 M175.600 77.756 C 170.221 80.011,165.057 82.772,161.900 85.079 C 158.959 87.229,159.651 87.009,163.300 84.634 C 166.960 82.252,174.403 78.400,175.347 78.400 C 175.680 78.400,176.064 78.220,176.200 78.000 C 176.336 77.780,176.786 77.600,177.200 77.600 C 177.614 77.600,178.064 77.420,178.200 77.200 C 178.560 76.617,178.062 76.724,175.600 77.756 M221.400 77.200 C 221.536 77.420,221.909 77.600,222.229 77.600 C 222.549 77.600,223.123 77.759,223.505 77.953 C 223.887 78.148,224.650 78.484,225.200 78.700 C 225.750 78.916,227.873 79.923,229.919 80.938 C 231.964 81.953,233.543 82.631,233.427 82.444 C 233.027 81.796,222.347 76.800,221.362 76.800 C 221.247 76.800,221.264 76.980,221.400 77.200 M234.200 83.081 C 234.420 83.298,235.950 84.397,237.600 85.522 C 239.250 86.647,241.410 88.290,242.400 89.172 C 243.390 90.055,244.324 90.782,244.476 90.789 C 245.109 90.815,252.295 99.274,254.510 102.600 C 257.221 106.672,258.226 107.882,256.670 105.200 C 253.213 99.244,247.425 92.702,241.282 87.808 C 237.856 85.079,232.820 81.717,234.200 83.081 M157.560 88.423 L 155.800 90.059 157.600 88.734 C 158.590 88.005,159.475 87.361,159.567 87.304 C 159.658 87.247,159.640 87.107,159.526 86.993 C 159.412 86.879,158.527 87.522,157.560 88.423 M152.067 93.402 C 149.150 96.484,145.944 100.487,143.742 103.800 C 142.179 106.150,140.771 108.800,141.085 108.800 C 141.261 108.800,141.637 108.274,141.922 107.632 C 143.435 104.213,148.923 97.021,153.332 92.678 C 154.629 91.401,155.604 90.271,155.500 90.166 C 155.395 90.062,153.850 91.518,152.067 93.402 M137.000 117.200 C 136.850 117.673,136.817 118.150,136.927 118.260 C 137.037 118.370,137.250 118.073,137.400 117.600 C 137.550 117.127,137.583 116.650,137.473 116.540 C 137.363 116.430,137.150 116.727,137.000 117.200 M262.412 118.000 C 262.412 118.330,262.587 118.870,262.800 119.200 C 263.145 119.733,263.188 119.733,263.188 119.200 C 263.188 118.870,263.013 118.330,262.800 118.000 C 262.455 117.467,262.412 117.467,262.412 118.000 M136.200 119.600 C 136.050 120.073,136.017 120.550,136.127 120.660 C 136.237 120.770,136.450 120.473,136.600 120.000 C 136.750 119.527,136.783 119.050,136.673 118.940 C 136.563 118.830,136.350 119.127,136.200 119.600 M135.400 122.400 C 135.250 122.873,135.217 123.350,135.327 123.460 C 135.437 123.570,135.650 123.273,135.800 122.800 C 135.950 122.327,135.983 121.850,135.873 121.740 C 135.763 121.630,135.550 121.927,135.400 122.400 M264.034 123.400 C 264.022 123.840,264.187 124.470,264.400 124.800 C 264.914 125.595,264.914 124.596,264.400 123.400 L 264.056 122.600 264.034 123.400 M134.578 125.778 C 134.427 126.581,134.394 127.327,134.504 127.437 C 134.614 127.547,134.827 126.981,134.978 126.178 C 135.128 125.375,135.162 124.628,135.052 124.518 C 134.942 124.408,134.728 124.975,134.578 125.778 M264.875 127.000 C 264.886 127.440,265.032 128.340,265.200 129.000 L 265.505 130.200 265.525 129.000 C 265.535 128.340,265.389 127.440,265.200 127.000 L 264.856 126.200 264.875 127.000 M133.869 129.556 C 133.721 130.295,133.622 131.553,133.649 132.350 C 133.686 133.449,133.782 133.218,134.048 131.400 C 134.431 128.771,134.299 127.405,133.869 129.556 M265.800 139.815 C 265.800 144.840,265.914 148.421,266.053 147.775 C 266.399 146.162,266.418 134.162,266.077 132.240 C 265.925 131.382,265.800 134.791,265.800 139.815 M133.357 140.000 C 133.357 142.970,133.420 144.185,133.497 142.700 C 133.574 141.215,133.574 138.785,133.497 137.300 C 133.420 135.815,133.357 137.030,133.357 140.000 M133.640 148.033 C 133.662 149.005,133.831 150.250,134.016 150.800 C 134.226 151.427,134.266 150.830,134.123 149.200 C 133.855 146.156,133.583 145.498,133.640 148.033 M265.000 151.600 C 264.846 152.510,264.811 153.344,264.921 153.454 C 265.031 153.564,265.246 152.910,265.400 152.000 C 265.554 151.090,265.589 150.256,265.479 150.146 C 265.369 150.036,265.154 150.690,265.000 151.600 M134.468 153.200 C 134.462 153.750,134.611 154.560,134.800 155.000 L 135.144 155.800 135.132 155.000 C 135.126 154.560,134.976 153.750,134.800 153.200 L 134.480 152.200 134.468 153.200 M264.200 155.600 C 264.048 156.291,264.014 156.947,264.124 157.057 C 264.234 157.167,264.448 156.691,264.600 156.000 C 264.752 155.309,264.786 154.653,264.676 154.543 C 264.566 154.433,264.352 154.909,264.200 155.600 M135.234 156.600 C 135.222 157.040,135.387 157.670,135.600 158.000 C 136.114 158.795,136.114 157.796,135.600 156.600 L 135.256 155.800 135.234 156.600 M263.473 158.153 C 263.323 158.545,263.211 159.166,263.225 159.533 C 263.242 159.975,263.381 159.874,263.637 159.234 C 263.849 158.703,263.961 158.082,263.885 157.854 C 263.809 157.627,263.624 157.761,263.473 158.153 M139.200 167.820 C 139.200 168.272,140.466 170.467,140.631 170.302 C 140.820 170.114,139.647 167.600,139.371 167.600 C 139.277 167.600,139.200 167.699,139.200 167.820 M259.040 169.640 C 258.686 170.349,258.474 171.007,258.569 171.102 C 258.664 171.197,259.038 170.701,259.400 170.000 C 259.762 169.299,259.974 168.641,259.871 168.538 C 259.768 168.435,259.394 168.931,259.040 169.640 M142.159 173.500 C 142.889 174.884,143.970 176.299,143.987 175.891 C 144.002 175.541,141.977 172.400,141.737 172.400 C 141.650 172.400,141.840 172.895,142.159 173.500 M256.792 173.700 C 256.780 174.446,251.977 181.015,249.188 184.100 C 247.845 185.585,246.861 186.800,247.002 186.800 C 247.645 186.800,252.744 180.647,255.454 176.600 C 257.633 173.345,257.709 173.200,257.224 173.200 C 256.991 173.200,256.796 173.425,256.792 173.700 M145.647 178.774 C 148.351 182.608,157.210 192.092,157.198 191.140 C 157.197 191.063,155.171 188.930,152.695 186.400 C 150.219 183.870,147.385 180.591,146.396 179.113 C 145.408 177.635,144.459 176.420,144.286 176.413 C 144.114 176.406,144.726 177.468,145.647 178.774 M244.000 189.313 C 243.230 190.023,242.078 191.011,241.439 191.508 C 240.800 192.005,240.362 192.495,240.464 192.597 C 240.566 192.699,241.862 191.707,243.344 190.392 C 244.826 189.076,245.895 188.005,245.719 188.011 C 245.544 188.017,244.770 188.603,244.000 189.313 M158.800 192.390 C 161.722 195.020,171.506 200.792,174.600 201.712 C 175.040 201.842,177.200 202.567,179.400 203.321 C 183.629 204.771,187.077 205.555,186.000 204.821 C 185.670 204.596,185.003 204.409,184.519 204.406 C 184.034 204.403,183.224 204.239,182.719 204.042 C 182.213 203.845,180.990 203.447,180.000 203.159 C 173.194 201.177,167.152 198.019,158.600 191.978 C 157.602 191.273,157.636 191.342,158.800 192.390 M236.692 194.965 C 233.311 197.268,232.438 197.993,234.000 197.201 C 235.910 196.232,240.793 192.609,239.900 192.824 C 239.845 192.837,238.401 193.801,236.692 194.965 M227.800 200.002 C 226.040 200.845,223.070 202.017,221.200 202.606 C 219.330 203.195,217.387 203.840,216.881 204.039 C 216.376 204.237,215.566 204.403,215.081 204.406 C 214.597 204.409,213.930 204.596,213.600 204.821 C 212.518 205.558,215.961 204.768,220.800 203.169 C 225.091 201.751,231.200 199.070,231.200 198.605 C 231.200 198.350,231.552 198.205,227.800 200.002 M186.833 205.350 C 186.925 205.432,188.080 205.604,189.400 205.731 C 190.955 205.880,191.448 205.842,190.800 205.621 C 189.814 205.284,186.510 205.059,186.833 205.350 M208.800 205.621 C 208.152 205.842,208.645 205.880,210.200 205.731 C 211.520 205.604,212.675 205.432,212.767 205.350 C 213.090 205.059,209.786 205.284,208.800 205.621 M195.921 206.299 C 198.188 206.370,201.788 206.370,203.921 206.298 C 206.055 206.226,204.200 206.168,199.800 206.168 C 195.400 206.168,193.655 206.227,195.921 206.299 M198.300 243.098 C 200.555 243.170,204.245 243.170,206.500 243.098 C 208.755 243.027,206.910 242.969,202.400 242.969 C 197.890 242.969,196.045 243.027,198.300 243.098 M188.600 243.600 L 186.600 243.874 188.800 243.897 C 190.010 243.910,191.450 243.776,192.000 243.600 C 193.308 243.181,191.654 243.181,188.600 243.600 M213.000 243.587 C 214.203 243.906,218.680 244.129,218.367 243.854 C 218.275 243.774,216.760 243.609,215.000 243.488 C 213.106 243.359,212.290 243.399,213.000 243.587 M183.400 244.400 L 181.800 244.686 183.400 244.715 C 184.280 244.731,185.360 244.589,185.800 244.400 L 186.600 244.056 185.800 244.085 C 185.360 244.101,184.280 244.242,183.400 244.400 M219.400 244.386 C 220.157 244.725,223.521 244.964,223.167 244.654 C 223.075 244.574,222.010 244.400,220.800 244.268 C 219.363 244.112,218.878 244.152,219.400 244.386 M179.800 245.064 C 174.594 246.175,165.977 248.731,164.400 249.633 C 163.368 250.223,164.164 250.035,167.032 249.014 C 169.783 248.033,172.407 247.281,177.000 246.155 C 181.245 245.115,183.284 244.320,179.800 245.064 M224.000 245.179 C 224.330 245.404,225.125 245.591,225.767 245.594 C 227.304 245.602,226.984 245.370,225.000 245.038 C 223.854 244.846,223.570 244.886,224.000 245.179 M227.600 245.970 C 227.930 246.200,228.547 246.391,228.972 246.394 C 229.396 246.397,230.296 246.580,230.972 246.801 C 235.777 248.369,238.571 249.162,238.729 249.004 C 238.941 248.793,238.863 248.765,234.800 247.587 C 233.150 247.108,231.350 246.567,230.800 246.383 C 228.958 245.769,226.937 245.508,227.600 245.970 M240.226 249.765 C 242.244 250.644,243.526 250.859,241.800 250.029 C 240.920 249.606,239.930 249.253,239.600 249.245 C 239.270 249.238,239.552 249.472,240.226 249.765 M161.253 250.653 C 160.513 250.976,159.991 251.324,160.094 251.427 C 160.197 251.530,161.073 251.255,162.040 250.816 C 163.008 250.377,163.530 250.028,163.200 250.041 C 162.870 250.055,161.994 250.330,161.253 250.653 M245.600 251.795 C 245.600 252.005,248.335 253.211,248.749 253.183 C 249.070 253.162,246.301 251.639,245.900 251.617 C 245.735 251.608,245.600 251.688,245.600 251.795 M152.700 254.629 C 152.095 254.957,151.600 255.310,151.600 255.413 C 151.600 255.799,152.232 255.557,153.200 254.800 C 154.389 253.870,154.211 253.809,152.700 254.629 M254.800 256.367 C 255.763 257.152,256.400 257.408,256.400 257.010 C 256.400 256.906,255.815 256.535,255.100 256.186 L 253.800 255.552 254.800 256.367 M148.300 257.029 C 147.695 257.357,147.200 257.710,147.200 257.813 C 147.200 258.199,147.832 257.957,148.800 257.200 C 149.989 256.270,149.811 256.209,148.300 257.029 M144.200 259.600 C 142.880 260.479,141.948 261.198,142.128 261.199 C 142.308 261.199,143.241 260.660,144.200 260.000 C 145.159 259.340,146.137 258.800,146.372 258.800 C 146.607 258.800,146.800 258.620,146.800 258.400 C 146.800 257.852,146.887 257.812,144.200 259.600 M259.600 258.929 C 259.600 259.027,260.794 259.884,262.253 260.834 C 263.712 261.785,265.107 262.751,265.353 262.981 C 265.599 263.212,267.150 264.408,268.800 265.639 C 275.994 271.008,285.174 280.342,289.612 286.800 C 290.141 287.570,290.775 288.409,291.022 288.663 C 291.268 288.918,292.058 290.043,292.776 291.163 C 294.030 293.117,294.835 293.959,294.053 292.500 C 290.584 286.022,279.076 273.322,270.466 266.469 C 265.838 262.785,259.600 258.457,259.600 258.929 M139.800 262.458 C 136.261 265.002,131.232 269.019,131.217 269.314 C 131.207 269.487,132.606 268.484,134.325 267.085 C 136.044 265.686,138.339 263.941,139.425 263.206 C 141.849 261.567,141.769 261.632,141.567 261.454 C 141.475 261.373,140.680 261.825,139.800 262.458 M125.475 274.675 C 122.691 277.464,120.467 279.800,120.532 279.866 C 120.598 279.931,122.931 277.704,125.718 274.918 C 128.504 272.131,130.728 269.795,130.660 269.727 C 130.592 269.658,128.258 271.885,125.475 274.675 M116.963 284.114 C 114.446 287.383,110.729 292.731,109.812 294.400 C 109.045 295.796,110.414 294.015,112.425 291.000 C 114.772 287.480,116.477 285.185,118.887 282.300 C 119.760 281.255,120.323 280.406,120.137 280.414 C 119.952 280.422,118.523 282.087,116.963 284.114 M294.950 294.600 C 295.274 295.260,295.831 296.160,296.189 296.600 C 296.797 297.348,296.801 297.322,296.250 296.200 C 295.926 295.540,295.369 294.640,295.011 294.200 C 294.403 293.452,294.399 293.478,294.950 294.600 M108.716 296.088 C 107.532 297.913,107.163 298.800,107.586 298.800 C 107.814 298.800,108.000 298.603,108.000 298.362 C 108.000 298.121,108.380 297.390,108.844 296.739 C 109.308 296.087,109.602 295.469,109.498 295.364 C 109.394 295.260,109.042 295.586,108.716 296.088 M296.854 297.800 C 296.939 298.020,298.102 300.360,299.437 303.000 C 301.495 307.066,303.568 311.896,304.571 314.957 C 304.707 315.374,304.912 315.621,305.026 315.507 C 305.533 315.000,298.386 298.977,297.128 297.800 C 296.843 297.533,296.751 297.533,296.854 297.800 M101.020 312.020 C 100.410 313.574,99.994 314.928,100.096 315.029 C 100.197 315.130,100.757 313.920,101.340 312.340 C 102.719 308.606,102.461 308.348,101.020 312.020 M98.631 319.076 C 96.998 324.527,96.251 327.571,95.607 331.400 C 95.348 332.940,94.910 335.242,94.634 336.514 C 94.357 337.787,94.284 338.676,94.471 338.489 C 94.658 338.302,95.003 337.080,95.238 335.775 C 96.932 326.349,97.206 325.141,98.986 319.234 C 99.544 317.382,99.930 315.797,99.843 315.710 C 99.757 315.623,99.211 317.138,98.631 319.076 M305.228 316.676 C 305.213 317.158,305.380 317.664,305.600 317.800 C 306.073 318.092,306.073 317.701,305.600 316.600 C 305.269 315.829,305.255 315.831,305.228 316.676 M306.034 319.000 C 306.022 319.440,306.187 320.070,306.400 320.400 C 306.914 321.195,306.914 320.196,306.400 319.000 L 306.056 318.200 306.034 319.000 M306.806 321.833 C 306.809 322.255,306.995 322.870,307.218 323.200 C 307.515 323.638,307.552 323.476,307.356 322.600 C 307.027 321.129,306.798 320.810,306.806 321.833 M307.646 324.800 C 307.627 325.350,307.787 326.070,308.000 326.400 C 308.494 327.164,308.494 326.342,308.000 324.800 L 307.680 323.800 307.646 324.800 M308.446 328.400 C 308.427 328.950,308.587 329.670,308.800 330.000 C 309.294 330.764,309.294 329.942,308.800 328.400 L 308.480 327.400 308.446 328.400 M309.254 332.651 C 309.225 333.339,309.470 334.126,309.800 334.400 C 310.444 334.935,310.642 334.411,310.034 333.780 C 309.832 333.571,309.587 332.950,309.488 332.400 C 309.332 331.530,309.302 331.563,309.254 332.651 " stroke="none" fill="#aad4f4" fill-rule="evenodd"></path><path id="path4" d="M198.100 73.094 C 199.145 73.176,200.855 73.176,201.900 73.094 C 202.945 73.012,202.090 72.944,200.000 72.944 C 197.910 72.944,197.055 73.012,198.100 73.094 M189.200 73.621 C 188.770 73.914,189.054 73.954,190.200 73.762 C 192.184 73.430,192.504 73.198,190.967 73.206 C 190.325 73.209,189.530 73.396,189.200 73.621 M207.633 73.347 C 207.725 73.428,208.520 73.614,209.400 73.762 C 210.546 73.954,210.830 73.914,210.400 73.621 C 209.860 73.253,207.232 72.993,207.633 73.347 M185.000 74.400 C 184.708 74.873,185.099 74.873,186.200 74.400 C 186.971 74.069,186.969 74.055,186.124 74.028 C 185.642 74.013,185.136 74.180,185.000 74.400 M232.400 81.379 C 232.400 81.489,232.940 81.859,233.600 82.200 C 234.260 82.541,234.800 82.731,234.800 82.621 C 234.800 82.511,234.260 82.141,233.600 81.800 C 232.940 81.459,232.400 81.269,232.400 81.379 M239.000 85.788 C 239.660 86.329,240.370 86.778,240.578 86.786 C 240.785 86.794,240.345 86.350,239.600 85.800 C 237.857 84.514,237.435 84.505,239.000 85.788 M243.371 89.097 C 244.015 89.809,244.630 90.304,244.738 90.196 C 244.845 90.088,244.858 89.955,244.767 89.900 C 244.675 89.845,244.060 89.351,243.400 88.801 L 242.200 87.803 243.371 89.097 M152.073 92.525 C 151.373 93.247,150.800 93.968,150.800 94.126 C 150.800 94.285,151.437 93.758,152.216 92.957 C 152.995 92.155,153.567 91.434,153.489 91.355 C 153.410 91.276,152.773 91.803,152.073 92.525 M149.100 95.817 C 148.495 96.528,148.000 97.226,148.000 97.369 C 148.000 97.511,148.564 96.986,149.253 96.200 C 149.943 95.415,150.438 94.717,150.353 94.649 C 150.269 94.580,149.705 95.106,149.100 95.817 M249.217 94.699 C 249.227 94.864,250.082 95.904,251.117 97.009 C 253.220 99.254,252.963 98.715,250.683 96.099 C 249.867 95.163,249.208 94.533,249.217 94.699 M146.744 98.700 C 145.475 100.232,145.019 100.942,145.481 100.665 C 145.993 100.358,147.769 98.000,147.489 98.000 C 147.398 98.000,147.063 98.315,146.744 98.700 M255.445 103.012 C 255.810 103.569,256.186 103.947,256.282 103.851 C 256.519 103.614,255.484 102.000,255.095 102.000 C 254.922 102.000,255.080 102.456,255.445 103.012 M135.049 121.415 C 134.912 121.773,134.815 122.366,134.834 122.733 C 134.853 123.100,135.027 122.869,135.221 122.220 C 135.598 120.958,135.465 120.333,135.049 121.415 M264.658 123.600 C 264.975 125.325,265.202 125.651,265.194 124.367 C 265.191 123.835,265.011 123.130,264.794 122.800 C 264.518 122.378,264.477 122.615,264.658 123.600 M134.249 124.615 C 134.112 124.973,134.018 125.656,134.041 126.133 C 134.067 126.681,134.203 126.486,134.410 125.603 C 134.760 124.116,134.665 123.533,134.249 124.615 M265.693 128.000 C 265.693 128.770,265.775 129.085,265.876 128.700 C 265.976 128.315,265.976 127.685,265.876 127.300 C 265.775 126.915,265.693 127.230,265.693 128.000 M133.456 128.484 C 133.321 128.988,133.232 130.120,133.258 131.000 C 133.297 132.320,133.359 132.180,133.613 130.200 C 133.937 127.678,133.870 126.941,133.456 128.484 M266.542 135.000 C 266.541 136.980,266.608 137.840,266.692 136.912 C 266.776 135.984,266.777 134.364,266.695 133.312 C 266.612 132.260,266.543 133.020,266.542 135.000 M132.893 134.000 C 132.893 134.770,132.975 135.085,133.076 134.700 C 133.176 134.315,133.176 133.685,133.076 133.300 C 132.975 132.915,132.893 133.230,132.893 134.000 M132.544 140.000 C 132.544 142.090,132.612 142.945,132.694 141.900 C 132.776 140.855,132.776 139.145,132.694 138.100 C 132.612 137.055,132.544 137.910,132.544 140.000 M266.540 144.800 C 266.540 146.670,266.609 147.435,266.693 146.500 C 266.777 145.565,266.777 144.035,266.693 143.100 C 266.609 142.165,266.540 142.930,266.540 144.800 M132.893 145.600 C 132.893 146.370,132.975 146.685,133.076 146.300 C 133.176 145.915,133.176 145.285,133.076 144.900 C 132.975 144.515,132.893 144.830,132.893 145.600 M133.309 149.200 C 133.309 150.190,133.387 150.595,133.482 150.100 C 133.578 149.605,133.578 148.795,133.482 148.300 C 133.387 147.805,133.309 148.210,133.309 149.200 M265.660 151.667 C 265.627 152.254,265.496 153.064,265.370 153.467 C 265.152 154.160,265.165 154.161,265.595 153.490 C 265.846 153.099,265.977 152.289,265.886 151.690 L 265.720 150.600 265.660 151.667 M134.006 153.833 C 134.009 154.475,134.184 155.270,134.395 155.600 C 134.655 156.009,134.699 155.690,134.532 154.600 C 134.229 152.623,133.998 152.286,134.006 153.833 M264.854 155.467 C 264.825 155.944,264.696 156.664,264.570 157.067 C 264.352 157.761,264.364 157.762,264.796 157.088 C 265.047 156.697,265.175 155.977,265.081 155.488 C 264.909 154.601,264.909 154.601,264.854 155.467 M252.350 181.300 C 251.626 182.235,249.500 184.620,247.626 186.600 L 244.217 190.200 247.324 187.200 C 250.138 184.483,254.337 179.600,253.860 179.600 C 253.754 179.600,253.075 180.365,252.350 181.300 M150.218 185.218 C 151.308 186.437,152.281 187.376,152.381 187.303 C 152.480 187.231,151.589 186.233,150.399 185.086 L 148.236 183.000 150.218 185.218 M154.200 189.200 C 155.059 190.080,155.852 190.800,155.962 190.800 C 156.072 190.800,155.459 190.080,154.600 189.200 C 153.741 188.320,152.948 187.600,152.838 187.600 C 152.728 187.600,153.341 188.320,154.200 189.200 M166.000 197.964 C 166.550 198.414,167.180 198.783,167.400 198.785 C 167.828 198.788,167.105 198.234,165.800 197.560 C 165.269 197.285,165.336 197.421,166.000 197.964 M233.000 198.000 C 232.340 198.437,231.980 198.792,232.200 198.788 C 232.601 198.782,234.776 197.223,234.400 197.212 C 234.290 197.208,233.660 197.563,233.000 198.000 M229.068 199.996 C 226.520 201.236,225.589 201.888,227.295 201.240 C 228.866 200.643,231.600 199.215,231.600 198.992 C 231.600 198.748,231.783 198.675,229.068 199.996 M169.600 199.796 C 169.600 200.070,172.049 201.284,172.232 201.101 C 172.319 201.014,171.762 200.644,170.995 200.278 C 170.228 199.912,169.600 199.695,169.600 199.796 M188.000 205.982 C 188.330 206.205,188.945 206.391,189.367 206.394 C 190.390 206.402,190.071 206.173,188.600 205.844 C 187.724 205.648,187.562 205.685,188.000 205.982 M210.400 206.000 C 209.576 206.264,209.541 206.326,210.200 206.354 C 210.640 206.373,211.270 206.213,211.600 206.000 C 212.301 205.547,211.814 205.547,210.400 206.000 M194.076 206.860 C 194.584 207.003,197.160 207.120,199.800 207.120 C 202.440 207.120,205.016 207.003,205.524 206.860 C 206.032 206.717,203.456 206.600,199.800 206.600 C 196.144 206.600,193.568 206.717,194.076 206.860 M197.000 242.360 C 196.340 242.506,198.860 242.629,202.600 242.632 C 206.340 242.636,208.860 242.516,208.200 242.367 C 206.659 242.017,198.570 242.013,197.000 242.360 M188.000 243.221 C 187.570 243.514,187.854 243.554,189.000 243.362 C 190.984 243.030,191.304 242.798,189.767 242.806 C 189.125 242.809,188.330 242.996,188.000 243.221 M215.000 243.200 C 215.660 243.368,216.560 243.514,217.000 243.525 L 217.800 243.544 217.000 243.200 C 216.560 243.011,215.660 242.865,215.000 242.875 L 213.800 242.895 215.000 243.200 M183.000 244.000 C 181.981 244.438,183.032 244.438,184.400 244.000 C 185.204 243.743,185.243 243.677,184.600 243.668 C 184.160 243.662,183.440 243.811,183.000 244.000 M221.000 244.000 C 221.440 244.189,222.070 244.344,222.400 244.344 C 222.778 244.344,222.704 244.217,222.200 244.000 C 221.760 243.811,221.130 243.656,220.800 243.656 C 220.422 243.656,220.496 243.783,221.000 244.000 M178.800 244.800 C 178.267 245.145,178.267 245.188,178.800 245.188 C 179.130 245.188,179.670 245.013,180.000 244.800 C 180.533 244.455,180.533 244.412,180.000 244.412 C 179.670 244.412,179.130 244.587,178.800 244.800 M172.200 246.400 C 171.696 246.617,171.622 246.744,172.000 246.744 C 172.330 246.744,172.960 246.589,173.400 246.400 C 173.904 246.183,173.978 246.056,173.600 246.056 C 173.270 246.056,172.640 246.211,172.200 246.400 M166.000 248.400 C 165.010 248.815,164.470 249.152,164.800 249.148 C 165.472 249.140,168.828 247.663,168.200 247.652 C 167.980 247.648,166.990 247.985,166.000 248.400 M140.500 261.288 C 140.005 261.527,139.600 261.879,139.600 262.070 C 139.600 262.262,140.050 262.124,140.600 261.763 C 142.067 260.802,142.016 260.557,140.500 261.288 M133.230 266.816 C 129.526 269.901,125.188 273.988,122.400 277.019 C 121.410 278.095,122.940 276.727,125.800 273.980 C 128.660 271.232,132.305 267.933,133.900 266.647 C 136.439 264.600,137.088 263.988,136.700 264.004 C 136.645 264.006,135.083 265.272,133.230 266.816 M269.600 265.259 C 270.646 266.363,276.356 271.200,276.612 271.200 C 276.971 271.200,272.534 267.314,269.800 265.235 C 269.072 264.682,269.054 264.684,269.600 265.259 M283.600 278.525 C 283.600 278.594,284.185 279.179,284.900 279.825 L 286.200 281.000 285.025 279.700 C 283.930 278.488,283.600 278.216,283.600 278.525 M119.226 280.522 L 118.251 281.800 119.526 280.625 C 120.851 279.403,121.003 279.185,120.500 279.222 C 120.335 279.234,119.762 279.819,119.226 280.522 M116.975 283.153 C 115.139 285.484,113.915 287.200,114.088 287.200 C 114.347 287.200,118.086 282.348,117.929 282.215 C 117.858 282.155,117.429 282.577,116.975 283.153 M295.160 293.800 C 295.834 295.105,296.388 295.828,296.385 295.400 C 296.383 295.180,296.014 294.550,295.564 294.000 C 295.021 293.336,294.885 293.269,295.160 293.800 M298.360 299.400 C 299.034 300.705,299.588 301.428,299.585 301.000 C 299.583 300.780,299.214 300.150,298.764 299.600 C 298.221 298.936,298.085 298.869,298.360 299.400 M101.238 310.100 C 101.049 310.595,100.604 311.697,100.248 312.549 C 99.891 313.401,99.611 314.301,99.625 314.549 C 99.639 314.797,99.800 314.640,99.984 314.200 C 101.281 311.082,101.959 309.200,101.784 309.200 C 101.672 309.200,101.426 309.605,101.238 310.100 M98.046 318.867 C 98.021 319.234,97.896 319.864,97.770 320.267 C 97.552 320.962,97.563 320.963,97.997 320.287 C 98.248 319.896,98.373 319.266,98.273 318.887 C 98.111 318.268,98.088 318.266,98.046 318.867 M97.246 321.667 C 97.221 322.034,97.096 322.664,96.970 323.067 C 96.752 323.762,96.763 323.763,97.197 323.087 C 97.448 322.696,97.573 322.066,97.473 321.687 C 97.311 321.068,97.288 321.066,97.246 321.667 M96.446 324.867 C 96.421 325.234,96.296 325.864,96.170 326.267 C 95.952 326.962,95.963 326.963,96.397 326.287 C 96.648 325.896,96.773 325.266,96.673 324.887 C 96.511 324.268,96.488 324.266,96.446 324.867 M308.828 327.876 C 308.918 328.915,309.544 329.796,309.572 328.924 C 309.587 328.442,309.420 327.936,309.200 327.800 C 308.980 327.664,308.813 327.698,308.828 327.876 M95.429 329.429 C 95.281 330.015,95.238 330.572,95.332 330.666 C 95.427 330.760,95.624 330.358,95.771 329.771 C 95.919 329.185,95.962 328.628,95.868 328.534 C 95.773 328.440,95.576 328.842,95.429 329.429 M94.649 333.415 C 94.512 333.773,94.416 334.456,94.436 334.933 C 94.462 335.547,94.585 335.408,94.859 334.456 C 95.257 333.072,95.094 332.258,94.649 333.415 " stroke="none" fill="#50acf4" fill-rule="evenodd"></path></g></svg>