<?xml version="1.0" encoding="iso-8859-1"?>
<!-- Generator: Adobe Illustrator 19.0.0, SVG Export Plug-In . SVG Version: 6.00 Build 0)  -->
<svg xmlns="http://www.w3.org/2000/svg" xmlns:xlink="http://www.w3.org/1999/xlink" version="1.1" id="Capa_1" x="0px" y="0px" viewBox="0 0 511.999 511.999" style="enable-background:new 0 0 511.999 511.999;" xml:space="preserve">
<g>
	<path style="fill:#F2CA5A;" d="M180.696,127.931c19.237-11.235,43.928-20.947,75.564-27.864c-0.134-0.029-0.267-0.06-0.401-0.09   C117.415,69.983,114.691,7.47,114.691,7.47S99.754,81.088,180.696,127.931z"/>
	<path style="fill:#F2CA5A;" d="M331.822,127.764c-19.149,11.171-43.702,20.832-75.163,27.623c-0.135,0.029-0.265,0.06-0.399,0.09   c138.136,29.842,139.849,100.501,139.849,100.501S416.982,177.101,331.822,127.764z"/>
	<path style="fill:#F2CA5A;" d="M396.107,255.977c0,0-1.71,70.799-140.25,100.591C91.825,391.84,114.691,504.484,114.691,504.484   s2.724-62.511,141.166-92.507C427.556,374.776,396.107,255.977,396.107,255.977z"/>
</g>
<g>
	<path style="fill:#EF3A47;" d="M180.696,384.024c19.18-11.1,43.738-20.698,75.162-27.456c0.136-0.029,0.266-0.061,0.401-0.09   c-137.61-29.842-139.316-100.501-139.316-100.501S96.194,334.676,180.696,384.024z"/>
	<path style="fill:#EF3A47;" d="M331.822,384.19c-19.269,11.163-43.964,20.815-75.563,27.697c0.134,0.03,0.265,0.06,0.399,0.09   c137.914,29.995,140.627,92.507,140.627,92.507S412.131,431.042,331.822,384.19z"/>
	<path style="fill:#EF3A47;" d="M116.944,255.977c0,0,1.703-70.799,139.714-100.59C420.065,120.114,397.285,7.47,397.285,7.47   s-2.713,62.511-140.627,92.507C85.615,137.178,116.944,255.977,116.944,255.977z"/>
</g>
<path d="M345.916,384.255c17.908-12.03,31.984-26.355,42.123-42.918c23.673-38.672,17.627-76.482,15.733-85.369  c1.229-5.833,4.243-24.211-0.562-47.129c-4.852-23.147-18.86-55.182-57.357-81.096c2.105-1.424,4.178-2.868,6.177-4.357  c19.468-14.497,33.945-32.028,43.025-52.105c15.545-34.372,9.804-64.044,9.552-65.29c-0.749-3.701-4.123-6.252-7.905-5.967  c-3.764,0.295-6.716,3.351-6.88,7.123c-0.006,0.128-0.996,13.364-16.618,30.258c-1.046,1.131-2.133,2.237-3.241,3.33h-97.486  c-4.126,0-7.47,3.343-7.47,7.47s3.344,7.47,7.47,7.47h78.944c-28.288,18.916-65.539,30.217-95.167,36.743  c-29.621-6.499-67.065-17.799-95.519-36.743h80.27c4.126,0,7.47-3.343,7.47-7.47s-3.343-7.47-7.47-7.47h-98.904  c-0.707-0.695-1.414-1.389-2.097-2.1c-16.694-17.367-17.845-31.442-17.85-31.489c-0.164-3.771-3.116-6.826-6.878-7.121  c-3.777-0.304-7.156,2.262-7.906,5.961c-0.166,0.821-4.003,20.404,2.746,46.05c5.674,21.564,20.145,51.424,56.492,75.888  c-17.624,11.943-31.51,26.132-41.542,42.519c-23.719,38.737-17.672,76.654-15.784,85.542c-1.222,5.816-4.221,24.152,0.538,47.03  c4.804,23.098,18.683,55.067,56.846,80.977c-2.224,1.491-4.41,3.006-6.517,4.568c-19.541,14.496-34.071,32.026-43.186,52.103  c-15.609,34.378-9.843,64.058-9.59,65.305c0.713,3.507,3.797,6.031,7.322,6.031c0.192,0,0.387-0.008,0.582-0.023  c3.762-0.296,6.711-3.305,6.875-7.075c0.01-0.14,1.161-14.216,17.855-31.581c0.781-0.813,1.586-1.611,2.399-2.402h98.602  c4.126,0,7.47-3.343,7.47-7.47c0-4.126-3.343-7.47-7.47-7.47h-79.821c28.397-18.762,65.606-29.975,95.071-36.44  c29.351,6.465,66.416,17.678,94.699,36.44H272.48c-4.126,0-7.47,3.344-7.47,7.47c0,4.126,3.343,7.47,7.47,7.47h97.18  c0.809,0.791,1.608,1.586,2.384,2.396c16.629,17.368,17.775,31.445,17.78,31.493c0.164,3.772,3.116,6.828,6.88,7.123  c0.197,0.015,0.393,0.022,0.589,0.022c3.524,0,6.607-2.483,7.316-5.99c0.165-0.819,3.977-20.351-2.711-45.946  C396.276,438.505,381.938,408.71,345.916,384.255z M331.733,136.403c31.003,18.977,50.077,44.138,56.715,74.841  c0.694,3.213,1.212,6.331,1.588,9.322c-1.839-2.73-3.925-5.544-6.295-8.409c-20.427-24.698-53.138-43.738-97.456-56.779  c0.953-0.295,1.881-0.607,2.824-0.909c1.094-0.351,2.197-0.694,3.276-1.055c1.139-0.38,2.253-0.779,3.375-1.169  c0.928-0.324,1.87-0.638,2.789-0.969c2.029-0.732,4.032-1.481,6.007-2.249c0.2-0.078,0.393-0.16,0.593-0.238  c1.792-0.701,3.566-1.414,5.313-2.145c0.37-0.154,0.726-0.317,1.094-0.473c1.565-0.664,3.121-1.334,4.649-2.021  c0.409-0.184,0.806-0.376,1.212-0.563c1.466-0.67,2.925-1.346,4.356-2.038c0.443-0.214,0.873-0.437,1.314-0.654  c1.368-0.673,2.731-1.351,4.066-2.044c0.508-0.264,1.001-0.537,1.504-0.803C329.685,137.501,330.723,136.961,331.733,136.403z   M124.747,48.916c-0.631-2.336-1.161-4.616-1.604-6.828c15.208,18.81,44.922,41.589,103.015,58.175  c-16.87,5.256-32.012,11.6-45.407,19.01C151.34,101.28,132.505,77.627,124.747,48.916z M137.955,178.001  c10.497-17.043,25.84-31.507,45.887-43.311c0.209-0.098,0.419-0.191,0.62-0.309c19.756-11.536,44.201-20.567,72.656-26.85  c0.377-0.084,0.748-0.171,1.127-0.254c76.532-16.646,113.091-43.461,130.551-65.073c-1.458,7.297-3.854,15.342-7.692,23.656  c-8.121,17.6-21.068,33.043-38.481,45.901c-5.328,3.934-11.092,7.623-17.257,11.075c-0.287,0.16-0.567,0.326-0.856,0.485  c-1.485,0.821-2.995,1.626-4.527,2.419c-0.342,0.177-0.693,0.35-1.038,0.525c-1.191,0.608-2.394,1.207-3.613,1.798  c-0.514,0.249-1.032,0.495-1.551,0.741c-1.098,0.52-2.207,1.034-3.328,1.541c-0.539,0.244-1.076,0.489-1.62,0.73  c-1.283,0.568-2.583,1.125-3.893,1.676c-0.364,0.152-0.719,0.31-1.085,0.461c-1.622,0.671-3.269,1.328-4.934,1.973  c-0.609,0.236-1.229,0.464-1.844,0.697c-1.109,0.419-2.223,0.835-3.349,1.243c-0.725,0.262-1.455,0.521-2.187,0.779  c-1.077,0.378-2.163,0.751-3.255,1.118c-0.721,0.243-1.44,0.488-2.169,0.726c-1.361,0.445-2.738,0.88-4.123,1.31  c-0.458,0.142-0.907,0.29-1.367,0.43c-1.796,0.547-3.615,1.078-5.451,1.599c-0.666,0.189-1.343,0.371-2.015,0.557  c-1.276,0.353-2.559,0.7-3.853,1.04c-0.721,0.189-1.445,0.375-2.171,0.561c-1.346,0.343-2.703,0.677-4.07,1.007  c-0.639,0.154-1.275,0.311-1.918,0.462c-2.004,0.47-4.023,0.931-6.069,1.372c-8.561,1.848-16.898,3.919-24.777,6.155  c-3.968,1.126-6.273,5.256-5.146,9.226c1.125,3.967,5.254,6.272,9.226,5.146c6.968-1.978,14.327-3.814,21.884-5.483  c30.658,6.752,69.508,19.096,97.829,41.161h-81.619c-4.126,0-7.47,3.343-7.47,7.47c0,4.125,3.343,7.47,7.47,7.47h97.63  c0.407,0.461,0.826,0.914,1.224,1.382c9.544,11.216,13.833,21.345,15.756,27.896H125.949c1.471-5.053,4.333-12.207,9.901-20.326  c1.91-2.786,4.221-5.795,7.008-8.952h98.148c4.126,0,7.47-3.344,7.47-7.47c0-4.126-3.343-7.47-7.47-7.47h-82.157  c12.36-9.683,29.425-19.677,52.94-28.351c3.87-1.427,5.85-5.722,4.422-9.593c-1.427-3.87-5.717-5.852-9.593-4.422  c-46.658,17.209-70.905,39.682-83.509,58.334C124.72,207.668,128.823,192.827,137.955,178.001z M180.815,375.383  c-30.748-18.975-49.655-44.104-56.231-74.751c-0.676-3.153-1.183-6.212-1.552-9.151c1.813,2.698,3.869,5.475,6.201,8.304  c1.583,1.921,3.249,3.804,4.98,5.657c0.012,0.013,0.024,0.026,0.037,0.039c20.504,21.93,51.332,39.042,91.981,51.062  c-0.964,0.297-1.903,0.611-2.856,0.915c-1.104,0.353-2.218,0.697-3.308,1.06c-1.359,0.452-2.688,0.922-4.025,1.389  c-1.168,0.408-2.333,0.82-3.483,1.24c-1.568,0.572-3.131,1.146-4.667,1.74c-0.574,0.222-1.13,0.455-1.7,0.68  c-1.416,0.56-2.832,1.119-4.22,1.697c-0.555,0.231-1.094,0.472-1.643,0.706c-1.382,0.588-2.762,1.176-4.115,1.783  c-0.532,0.238-1.05,0.486-1.577,0.727c-1.347,0.616-2.688,1.232-4.005,1.866c-0.534,0.257-1.055,0.523-1.584,0.783  c-1.279,0.628-2.554,1.26-3.805,1.905c-0.575,0.297-1.134,0.602-1.702,0.902C182.631,374.419,181.709,374.893,180.815,375.383z   M123.128,469.885c1.424-7.094,3.747-14.917,7.437-23.045c8.055-17.742,21.003-33.313,38.484-46.281  c5.324-3.95,11.088-7.654,17.254-11.121c0.417-0.235,0.832-0.472,1.254-0.705c2.99-1.65,6.076-3.245,9.257-4.783  c0.436-0.211,0.88-0.417,1.321-0.626c1.16-0.551,2.333-1.095,3.519-1.631c0.547-0.247,1.094-0.493,1.645-0.737  c1.167-0.516,2.349-1.023,3.539-1.525c0.509-0.214,1.012-0.433,1.526-0.644c1.633-0.674,3.287-1.337,4.963-1.985  c0.494-0.191,1.001-0.374,1.499-0.563c1.226-0.464,2.46-0.925,3.709-1.375c0.718-0.259,1.444-0.514,2.17-0.768  c1.078-0.378,2.163-0.751,3.257-1.118c0.748-0.252,1.496-0.503,2.252-0.75c1.229-0.401,2.472-0.793,3.721-1.181  c0.606-0.188,1.202-0.381,1.813-0.567c1.794-0.545,3.609-1.075,5.443-1.593c0.657-0.185,1.325-0.363,1.986-0.546  c1.291-0.356,2.589-0.707,3.898-1.05c0.742-0.194,1.489-0.385,2.237-0.575c1.324-0.336,2.658-0.664,4.001-0.987  c0.679-0.163,1.355-0.329,2.039-0.489c1.912-0.447,3.839-0.883,5.79-1.305c0.095-0.021,0.187-0.043,0.282-0.063l0.401-0.09  c0.006-0.001,0.012-0.003,0.018-0.005c16.69-3.606,32.283-7.997,46.347-13.058c3.881-1.396,5.897-5.675,4.5-9.557  c-1.396-3.882-5.678-5.895-9.557-4.5c-13.003,4.678-27.425,8.762-42.874,12.163c-30.54-6.753-69.238-19.096-97.445-41.162h82.195  c4.126,0,7.47-3.343,7.47-7.47c0-4.126-3.343-7.47-7.47-7.47h-98.141c-0.403-0.459-0.819-0.909-1.213-1.375  c-9.509-11.218-13.78-21.35-15.697-27.903h261.203c-1.957,6.783-6.494,17.428-16.964,29.278h-97.716c-4.126,0-7.47,3.343-7.47,7.47  c0,4.126,3.343,7.47,7.47,7.47h81.683c-9.084,7.085-20.553,14.208-35.051,20.869c-3.75,1.722-5.392,6.158-3.67,9.906  c1.722,3.749,6.158,5.392,9.906,3.67c34.628-15.911,53.927-34.699,64.684-50.653c-1.583,12.489-5.652,27.246-14.733,42.081  c-10.593,17.304-26.181,31.96-46.61,43.89c-0.205,0.095-0.412,0.186-0.611,0.301c-19.603,11.356-43.792,20.272-71.899,26.522  c-0.635,0.141-1.262,0.289-1.901,0.427C177.294,421.355,140.609,448.249,123.128,469.885z M286.368,411.724  c16.845-5.221,31.973-11.522,45.369-18.874c29.166,17.988,47.838,41.609,55.527,70.264c0.612,2.279,1.126,4.504,1.559,6.665  C373.661,450.999,344.076,428.282,286.368,411.724z"/>
<g>
</g>
<g>
</g>
<g>
</g>
<g>
</g>
<g>
</g>
<g>
</g>
<g>
</g>
<g>
</g>
<g>
</g>
<g>
</g>
<g>
</g>
<g>
</g>
<g>
</g>
<g>
</g>
<g>
</g>
</svg>
