<?xml version="1.0" encoding="iso-8859-1"?>
<!-- Generator: Adobe Illustrator 19.0.0, SVG Export Plug-In . SVG Version: 6.00 Build 0)  -->
<svg xmlns="http://www.w3.org/2000/svg" xmlns:xlink="http://www.w3.org/1999/xlink" version="1.1" id="Capa_1" x="0px" y="0px" viewBox="0 0 512.001 512.001" style="enable-background:new 0 0 512.001 512.001;" xml:space="preserve">
<path style="fill:#E0E0E0;" d="M446.612,363.86c-26.834-43.282-113.139-76.462-117.01-77.934  c-18.43,19.585-44.585,31.819-73.601,31.819l0,0c-29.015,0-55.171-12.234-73.601-31.819c-3.872,1.473-90.176,34.652-117.01,77.934  C37.938,408.138,8.087,504.504,8.087,504.504h495.826C503.914,504.504,474.064,408.138,446.612,363.86z"/>
<path style="fill:#C6C6C6;" d="M446.612,363.86c-26.834-43.282-113.139-76.463-117.01-77.934c-3.945,4.192-8.245,8.044-12.85,11.514  c27.746,12.312,78.201,37.94,97.557,68.795c27.307,43.53,57,138.266,57,138.266h32.606  C503.914,504.504,474.064,408.138,446.612,363.86z"/>
<path style="fill:#F7B081;" d="M256,317.746L256,317.746c-16.128,0-31.368-3.785-44.893-10.503L256,385.548l44.893-78.306  C287.369,313.962,272.128,317.746,256,317.746z"/>
<path style="fill:#FFC89F;" d="M256.612,317.746h-1.224c-55.471,0-100.438-44.968-100.438-100.439V107.935  c0-55.471,44.968-100.438,100.439-100.438h1.223c55.471,0,100.439,44.968,100.439,100.438v109.373  C357.051,272.778,312.083,317.746,256.612,317.746z"/>
<path style="fill:#F7B081;" d="M256.612,7.498h-1.223c-4.884,0-9.685,0.356-14.383,1.03c48.656,6.978,86.054,48.823,86.054,99.408  v109.373c0,50.586-37.4,92.43-86.054,99.409c4.698,0.674,9.499,1.03,14.383,1.03h1.224c55.471,0,100.439-44.967,100.439-100.438  V107.935C357.051,52.465,312.083,7.498,256.612,7.498z"/>
<path style="fill:#565656;" d="M256.612,7.498h-1.224c-55.471,0-100.439,44.968-100.439,100.438v45.546  c0,0,102.883,1.15,124.605-62.304c0,0,20.726,62.304,77.495,62.304v-45.546C357.051,52.465,312.083,7.498,256.612,7.498z"/>
<circle style="fill:#F2CA5A;" cx="336.109" cy="410.694" r="25.343"/>
<path d="M511.075,502.284c-1.231-3.973-30.452-97.795-58.092-142.375c-11.87-19.146-35.385-38.415-69.893-57.274  c-16.31-8.913-31.385-15.684-40.862-19.683c13.988-18.201,22.32-40.966,22.32-65.644v-63.826v-45.547  C364.548,48.42,316.128,0,256.612,0h-1.224c-59.516,0-107.935,48.42-107.935,107.935v45.547v63.826  c0,24.678,8.33,47.442,22.319,65.644c-9.937,4.195-26.018,11.428-43.22,20.983c-3.62,2.01-4.924,6.575-2.914,10.195  c2.01,3.62,6.575,4.924,10.195,2.914c15.747-8.746,30.485-15.466,40.12-19.579v47.303c-24.906,3.643-44.094,25.14-44.094,51.041  v47.818c0,4.141,3.357,7.497,7.498,7.497h17.291c4.141,0,7.497-3.357,7.497-7.497s-3.357-7.497-7.497-7.497h-9.794v-40.321  c0-20.179,16.418-36.597,36.597-36.597s36.597,16.418,36.597,36.597v40.321H207.13c-4.141,0-7.498,3.357-7.498,7.497  s3.357,7.497,7.498,7.497h18.414c4.141,0,7.498-3.357,7.498-7.497v-47.818c0-25.9-19.188-47.398-44.094-51.041v-42.454  c5.273,4.131,10.94,7.78,16.932,10.886l42.623,74.345v109.46H104.61l15.432-91.992c0.685-4.084-2.07-7.949-6.154-8.634  c-4.085-0.686-7.949,2.069-8.634,6.154l-15.848,94.473H18.365c8.31-25.442,31.825-94.402,53.396-129.194  c7.597-12.255,21.357-25.029,40.896-37.966c3.453-2.286,4.398-6.938,2.112-10.391c-2.287-3.453-6.94-4.398-10.391-2.112  c-21.355,14.141-36.617,28.463-45.362,42.568C31.378,404.491,2.155,498.313,0.926,502.284c-0.705,2.275-0.287,4.749,1.127,6.667  C3.466,510.867,5.705,512,8.087,512h328.646c4.141,0,7.498-3.357,7.498-7.497s-3.357-7.498-7.498-7.498h-73.236v-109.46  l42.624-74.345c7.64-3.961,14.751-8.805,21.193-14.402v80.259c-13.848,3.857-24.043,16.573-24.043,31.634  c0,18.108,14.732,32.839,32.84,32.839s32.84-14.732,32.84-32.839c0-15.989-11.488-29.338-26.641-32.245v-79.132  c8.923,3.924,20.845,9.516,33.59,16.481c31.751,17.352,54,35.34,64.34,52.018c21.572,34.792,45.087,103.753,53.397,129.194h-71.686  l-15.849-94.473c-0.685-4.084-4.547-6.842-8.634-6.154c-4.084,0.685-6.839,4.55-6.154,8.634l15.432,91.992h-40.023  c-4.141,0-7.497,3.357-7.497,7.498s3.357,7.497,7.497,7.497h137.19c2.382,0,4.622-1.132,6.035-3.049  C511.361,507.035,511.78,504.559,511.075,502.284z M162.448,107.935c0-51.248,41.693-92.94,92.94-92.94h1.224  c51.248,0,92.941,41.693,92.941,92.94v37.636c-17.836-1.997-33.408-11.235-46.377-27.537  c-11.437-14.376-16.462-29.088-16.507-29.223c-1.016-3.053-3.865-5.117-7.082-5.131c-0.011,0-0.022,0-0.033,0  c-3.204,0-6.055,2.036-7.094,5.069c-16.476,48.128-86.854,55.794-110.013,57.009V107.935z M162.448,160.797  c9.968-0.458,28.544-2.038,48.606-7.432c32.186-8.652,55.456-23.861,68.302-44.433c2.903,5.407,6.786,11.716,11.77,18.039  c15.805,20.051,35.883,31.579,58.427,33.661v56.676c0,24.009-9.151,45.92-24.148,62.43c-0.45,0.305-0.881,0.644-1.264,1.051  c-7.636,8.115-16.43,14.667-26.026,19.518c-0.186,0.074-0.375,0.132-0.556,0.222c-8.877,4.41-18.222,7.332-27.908,8.739  c-0.143,0.021-0.287,0.04-0.43,0.06c-0.672,0.095-1.347,0.181-2.021,0.261c-0.253,0.03-0.506,0.059-0.76,0.087  c-0.578,0.064-1.157,0.12-1.736,0.173c-0.307,0.028-0.613,0.056-0.92,0.081c-0.547,0.044-1.096,0.082-1.644,0.116  c-0.32,0.02-0.639,0.043-0.959,0.061c-0.581,0.031-1.163,0.053-1.744,0.074c-0.281,0.01-0.561,0.024-0.842,0.032  c-0.862,0.023-1.726,0.036-2.592,0.036c-0.867,0-1.73-0.013-2.593-0.036c-0.282-0.008-0.562-0.022-0.843-0.032  c-0.582-0.021-1.164-0.043-1.744-0.074c-0.321-0.017-0.641-0.04-0.961-0.061c-0.549-0.035-1.097-0.072-1.643-0.116  c-0.308-0.025-0.614-0.054-0.921-0.082c-0.579-0.053-1.158-0.109-1.734-0.173c-0.254-0.028-0.508-0.057-0.762-0.087  c-0.675-0.08-1.349-0.166-2.019-0.26c-0.144-0.02-0.288-0.04-0.432-0.06c-9.686-1.409-19.03-4.33-27.907-8.739  c-0.183-0.091-0.373-0.149-0.56-0.224c-9.596-4.85-18.388-11.401-26.023-19.516c-0.383-0.407-0.815-0.747-1.265-1.052  c-14.996-16.511-24.147-38.421-24.147-62.429L162.448,160.797L162.448,160.797z M256,370.474l-27.943-48.74  c8.732,2.287,17.891,3.509,27.331,3.509h1.224c9.44,0,18.599-1.223,27.332-3.509L256,370.474z M353.956,410.691  c0,9.84-8.005,17.844-17.845,17.844s-17.845-8.005-17.845-17.844c0-9.84,8.005-17.845,17.845-17.845  S353.956,400.851,353.956,410.691z"/>
<path d="M377.938,457.734c0-4.141-3.357-7.497-7.497-7.497h-75.906c-4.141,0-7.498,3.357-7.498,7.497  c0,4.141,3.357,7.498,7.498,7.498h75.906C374.581,465.232,377.938,461.875,377.938,457.734z"/>
<g>
</g>
<g>
</g>
<g>
</g>
<g>
</g>
<g>
</g>
<g>
</g>
<g>
</g>
<g>
</g>
<g>
</g>
<g>
</g>
<g>
</g>
<g>
</g>
<g>
</g>
<g>
</g>
<g>
</g>
</svg>
