<?xml version="1.0" encoding="iso-8859-1"?>
<!-- Generator: Adobe Illustrator 19.0.0, SVG Export Plug-In . SVG Version: 6.00 Build 0)  -->
<svg xmlns="http://www.w3.org/2000/svg" xmlns:xlink="http://www.w3.org/1999/xlink" version="1.1" id="Capa_1" x="0px" y="0px" viewBox="0 0 512 512" style="enable-background:new 0 0 512 512;" xml:space="preserve">
<path style="fill:#E0E0E0;" d="M446.611,363.86c-26.834-43.282-113.139-76.462-117.01-77.934  c-18.43,19.585-44.585,31.819-73.601,31.819l0,0c-29.015,0-55.171-12.234-73.601-31.819c-3.872,1.473-90.176,34.652-117.01,77.934  C37.937,408.138,8.086,504.504,8.086,504.504h495.826C503.914,504.504,474.063,408.138,446.611,363.86z"/>
<path style="fill:#C6C6C6;" d="M446.611,363.86c-26.834-43.282-113.138-76.463-117.01-77.934c-2.921,3.104-6.036,6.021-9.326,8.736  c28.214,12.805,77.282,38.45,96.346,69.197c27.452,44.278,57.302,140.642,57.302,140.642h29.99  C503.913,504.504,474.063,408.138,446.611,363.86z"/>
<path style="fill:#F9F1EF;" d="M256.51,123.8h101.763l31.913-67.122c0,0-46.242-49.181-133.575-49.181  S123.037,56.678,123.037,56.678l31.913,67.122h101.763"/>
<path style="fill:#CCCCCC;" d="M368.401,39.422L328.283,123.8h29.99l31.913-67.123C390.187,56.677,382.81,48.839,368.401,39.422z"/>
<path style="fill:#F7B081;" d="M256,317.746L256,317.746c-16.127,0-31.368-3.785-44.893-10.503L256,385.548l44.893-78.306  C287.368,313.962,272.127,317.746,256,317.746z"/>
<path style="fill:#EF3A47;" d="M288.652,51.734h-18.391v-18.39c0-2.825-2.29-5.116-5.116-5.116h-18.292  c-2.825,0-5.115,2.29-5.115,5.116v18.391h-18.391c-2.825,0-5.116,2.29-5.116,5.116v18.292c0,2.825,2.29,5.116,5.116,5.116h18.391  V98.65c0,2.825,2.29,5.116,5.115,5.116h18.292c2.825,0,5.116-2.29,5.116-5.116V80.257h18.391c2.825,0,5.115-2.29,5.115-5.116V56.85  C293.769,54.025,291.477,51.734,288.652,51.734z"/>
<path style="fill:#FFC89F;" d="M182.4,285.927c18.43,19.585,44.585,31.819,73.601,31.819l0,0c29.016,0,55.172-12.233,73.601-31.819  l0,0l0,0c16.852-17.964,28.671-42.044,28.671-68.619v-46.878c-52.201,0-70.644-46.63-70.644-46.63  c-26.488,63.543-132.68,50.722-132.68,50.722v42.786c0,26.575,10.327,50.736,27.179,68.7"/>
<path style="fill:#F7B081;" d="M328.283,164.53v52.777c0,26.575-11.819,50.654-28.671,68.619  c-15.193,16.146-35.638,27.287-58.606,30.706c4.893,0.729,9.899,1.114,14.995,1.114c29.016,0,55.172-12.233,73.601-31.819  c16.852-17.964,28.671-42.044,28.671-68.619v-46.878C346.661,170.429,336.722,168.118,328.283,164.53z"/>
<path style="fill:#565656;" d="M376.145,86.21L376.145,86.21l-17.872,37.59H154.951l-17.872-37.59l0,0  c-1.742,70.34-54.094,157.863-54.094,157.863c41.195,57.518,94.961,43.159,99.145,41.935c-16.852-17.964-27.179-42.125-27.179-68.7  v-42.786c0,0,106.192,12.821,132.68-50.722c0,0,18.442,46.63,70.644,46.63v46.878c0,26.575-10.327,50.736-27.179,68.7  c4.184,1.224,57.95,15.584,99.145-41.935C430.239,244.073,377.888,156.55,376.145,86.21z"/>
<g>
	<path style="fill:#F9F1EF;" d="M211.107,307.243c0.015,0.007,0.03,0.014,0.045,0.021c-10.826-5.372-20.555-12.626-28.752-21.337   l-16.897,69.752L256,385.548l0,0L211.107,307.243z"/>
	<path style="fill:#F9F1EF;" d="M300.893,307.243c-0.015,0.007-0.03,0.014-0.045,0.021c10.827-5.372,20.554-12.626,28.752-21.337   l16.897,69.752L256,385.548l0,0L300.893,307.243z"/>
</g>
<path d="M511.075,502.284c-1.23-3.973-30.452-97.795-58.092-142.375c-11.87-19.146-35.385-38.415-69.893-57.274  c-5.375-2.938-10.613-5.639-15.565-8.089c0.198-0.034,0.393-0.063,0.592-0.099c18.473-3.331,45.304-14.017,68.216-46.008  c1.737-2.426,1.87-5.653,0.339-8.214c-0.509-0.851-50.48-85.142-52.97-152.45l13.255-27.877c1.326-2.789,0.807-6.105-1.31-8.355  C393.669,49.438,346.156,0,256.612,0c-25.072,0-49.249,3.945-71.862,11.726c-3.915,1.348-5.997,5.613-4.649,9.529  c1.348,3.915,5.613,6,9.529,4.649c21.039-7.239,43.576-10.909,66.983-10.909c43.222,0,75.715,12.702,95.363,23.356  c14.38,7.798,24.19,15.677,29.099,20.028l-11.7,24.61c0,0.001,0,0.001,0,0.001l-15.838,33.312h-65.898h-0.013h-30.911h-0.205  h-96.822L132.144,58.37c5.288-4.7,16.304-13.511,32.839-21.988c3.685-1.889,5.14-6.408,3.252-10.093  c-1.889-3.686-6.409-5.14-10.093-3.252c-26.277,13.472-39.997,27.897-40.568,28.504c-2.115,2.249-2.635,5.566-1.31,8.355  l13.254,27.877c-2.489,67.241-52.462,151.601-52.97,152.452c-1.53,2.561-1.398,5.787,0.339,8.213  c22.785,31.813,49.443,42.555,67.906,45.949c-5.766,2.848-11.927,6.039-18.243,9.547c-3.62,2.01-4.924,6.575-2.914,10.195  c2.011,3.62,6.574,4.924,10.195,2.914c14.541-8.076,28.221-14.424,37.817-18.589l-13.435,55.459  c-0.92,3.795,1.229,7.661,4.936,8.885l85.351,28.17v106.038H104.609l15.432-91.992c0.686-4.084-2.07-7.949-6.154-8.634  c-4.084-0.686-7.949,2.069-8.634,6.154l-15.847,94.473H18.365c8.31-25.442,31.825-94.402,53.396-129.194  c7.597-12.255,21.357-25.029,40.896-37.966c3.453-2.286,4.398-6.938,2.112-10.391c-2.287-3.453-6.939-4.398-10.391-2.112  c-21.355,14.141-36.617,28.463-45.362,42.568C31.378,404.491,2.155,498.313,0.925,502.284c-0.705,2.275-0.287,4.749,1.127,6.667  C3.465,510.867,5.704,512,8.086,512h328.646c4.142,0,7.497-3.357,7.497-7.497s-3.356-7.498-7.497-7.498h-73.236V390.968  l85.351-28.17c3.709-1.224,5.856-5.089,4.937-8.885l-13.435-55.457c9.092,3.946,21.844,9.847,35.549,17.336  c31.751,17.352,54,35.34,64.34,52.018c21.571,34.792,45.087,103.753,53.396,129.194h-71.687L406.1,402.532  c-0.685-4.084-4.552-6.841-8.635-6.154c-4.084,0.685-6.839,4.55-6.153,8.634l15.431,91.992H366.72c-4.142,0-7.497,3.357-7.497,7.498  S362.579,512,366.72,512h137.191c2.382,0,4.621-1.132,6.035-3.049C511.362,507.035,511.78,504.559,511.075,502.284z M256,370.473  l-28.068-48.956c0.171,0.046,0.342,0.088,0.513,0.133c0.376,0.099,0.752,0.198,1.129,0.293c0.485,0.122,0.971,0.24,1.457,0.355  c0.376,0.089,0.752,0.179,1.13,0.265c0.489,0.111,0.98,0.216,1.471,0.32c0.376,0.08,0.751,0.16,1.128,0.236  c0.499,0.1,0.999,0.194,1.499,0.287c0.371,0.069,0.742,0.14,1.113,0.205c0.51,0.09,1.021,0.172,1.531,0.254  c0.365,0.059,0.73,0.12,1.096,0.175c0.522,0.079,1.045,0.149,1.568,0.22c0.358,0.048,0.715,0.1,1.073,0.145  c0.537,0.067,1.075,0.126,1.612,0.185c0.347,0.038,0.693,0.08,1.04,0.115c0.562,0.056,1.126,0.103,1.688,0.151  c0.324,0.027,0.647,0.059,0.971,0.083c0.611,0.046,1.223,0.081,1.834,0.117c0.278,0.016,0.556,0.037,0.835,0.051  c0.717,0.036,1.436,0.061,2.153,0.082c0.175,0.005,0.349,0.015,0.524,0.019c0.9,0.023,1.801,0.035,2.703,0.035  c0.913,0,1.824-0.013,2.735-0.036c0.218-0.006,0.436-0.017,0.654-0.024c0.685-0.022,1.37-0.046,2.053-0.08  c0.308-0.016,0.615-0.038,0.922-0.056c0.594-0.035,1.189-0.071,1.781-0.116c0.342-0.026,0.684-0.059,1.026-0.088  c0.555-0.048,1.111-0.095,1.664-0.152c0.364-0.037,0.727-0.08,1.091-0.12c0.531-0.059,1.062-0.119,1.591-0.186  c0.374-0.047,0.746-0.1,1.119-0.151c0.519-0.072,1.038-0.144,1.554-0.223c0.377-0.057,0.753-0.119,1.129-0.18  c0.512-0.083,1.023-0.169,1.534-0.26c0.378-0.067,0.755-0.138,1.133-0.209c0.506-0.096,1.01-0.194,1.514-0.296  c0.379-0.077,0.758-0.157,1.137-0.238c0.5-0.108,1-0.219,1.498-0.333c0.376-0.086,0.752-0.174,1.127-0.264  c0.501-0.121,1-0.246,1.499-0.373c0.37-0.095,0.741-0.19,1.11-0.288c0.067-0.018,0.134-0.034,0.201-0.052L256,370.473z   M358.273,131.297c2.894,0,5.528-1.665,6.771-4.279l6.371-13.399c4.095,24.041,12.644,51.126,25.553,80.883  c10.027,23.114,19.828,41.134,24.314,49.055c-15.51,20.097-34.27,32.245-55.824,36.132c-7.861,1.418-14.847,1.478-20.303,1.073  c12.717-17.456,19.877-38.293,20.55-60.081c0.039-1.124,0.066-2.248,0.066-3.374v-46.878c0-4.141-3.357-7.498-7.498-7.498  c-0.896,0-1.776-0.02-2.649-0.05c-0.249-0.008-0.496-0.02-0.743-0.03c-0.676-0.029-1.344-0.067-2.006-0.114  c-0.21-0.015-0.422-0.027-0.63-0.043c-0.836-0.066-1.662-0.144-2.478-0.236c-0.169-0.019-0.334-0.042-0.501-0.063  c-0.663-0.08-1.32-0.168-1.968-0.265c-0.235-0.035-0.47-0.071-0.704-0.108c-0.682-0.109-1.358-0.225-2.024-0.352  c-0.114-0.022-0.231-0.041-0.345-0.063c-0.768-0.15-1.522-0.313-2.269-0.485c-0.207-0.048-0.411-0.099-0.616-0.148  c-0.571-0.137-1.135-0.281-1.693-0.431c-0.205-0.055-0.411-0.109-0.614-0.166c-0.717-0.2-1.427-0.408-2.124-0.628  c-0.093-0.029-0.184-0.061-0.276-0.091c-0.613-0.197-1.217-0.401-1.814-0.613c-0.208-0.074-0.414-0.148-0.62-0.223  c-0.53-0.193-1.054-0.393-1.572-0.597c-0.155-0.061-0.313-0.12-0.466-0.182c-0.646-0.261-1.282-0.53-1.908-0.807  c-0.167-0.074-0.331-0.15-0.496-0.225c-0.481-0.217-0.957-0.439-1.427-0.665c-0.19-0.091-0.38-0.183-0.568-0.275  c-0.555-0.274-1.103-0.552-1.641-0.838c-0.056-0.029-0.113-0.058-0.169-0.087c-0.583-0.311-1.154-0.63-1.718-0.954  c-0.179-0.103-0.356-0.207-0.533-0.31c-0.418-0.245-0.831-0.493-1.239-0.744c-0.161-0.099-0.323-0.197-0.482-0.297  c-0.534-0.335-1.06-0.674-1.575-1.019c-0.122-0.081-0.24-0.165-0.361-0.247c-0.409-0.277-0.813-0.557-1.212-0.84  c-0.169-0.12-0.337-0.24-0.504-0.361c-0.395-0.286-0.784-0.574-1.168-0.865c-0.11-0.083-0.222-0.165-0.331-0.249  c-0.473-0.362-0.935-0.728-1.391-1.097c-0.146-0.118-0.289-0.238-0.434-0.356c-0.331-0.273-0.658-0.546-0.981-0.821  c-0.148-0.126-0.297-0.252-0.443-0.379c-0.429-0.372-0.853-0.746-1.266-1.122c-0.076-0.07-0.15-0.139-0.225-0.209  c-0.35-0.322-0.695-0.644-1.033-0.968c-0.143-0.136-0.284-0.273-0.424-0.41c-0.289-0.281-0.573-0.562-0.854-0.843  c-0.118-0.118-0.238-0.236-0.354-0.355c-0.371-0.377-0.734-0.755-1.089-1.132c-0.114-0.121-0.224-0.242-0.337-0.363  c-0.258-0.278-0.513-0.556-0.763-0.834c-0.127-0.141-0.254-0.282-0.379-0.423c-0.274-0.309-0.543-0.617-0.807-0.924  c-0.071-0.083-0.145-0.166-0.215-0.249c-0.317-0.372-0.625-0.743-0.927-1.113c-0.114-0.14-0.226-0.278-0.338-0.417  c-0.208-0.258-0.413-0.515-0.614-0.771c-0.106-0.135-0.212-0.269-0.316-0.403c-0.277-0.358-0.55-0.714-0.813-1.066  c-0.082-0.11-0.161-0.218-0.242-0.328c-0.195-0.264-0.388-0.527-0.576-0.787c-0.101-0.141-0.202-0.281-0.301-0.42  c-0.179-0.252-0.354-0.502-0.526-0.75c-0.076-0.11-0.154-0.221-0.229-0.329c-0.228-0.333-0.45-0.662-0.665-0.987  c-0.026-0.04-0.051-0.078-0.077-0.117h58.059V131.297z M287.702,139.437c2.607,3.932,5.995,8.398,10.254,12.856  c14.29,14.96,32.429,23.628,52.82,25.325v39.69c0,22.627-9.462,45.175-26.635,63.481c-0.898,0.954-1.816,1.883-2.749,2.796  c-0.098,0.096-0.195,0.194-0.294,0.289c-0.964,0.936-1.944,1.85-2.945,2.741c-0.002,0.001-0.004,0.003-0.006,0.005  c-6.223,5.54-13.136,10.209-20.631,13.928c-0.069,0.034-0.137,0.069-0.196,0.101c-0.128,0.068-0.237,0.157-0.359,0.232  c-12.568,6.132-26.475,9.368-40.961,9.368c-14.494,0-28.41-3.24-40.983-9.379c-0.144-0.087-0.274-0.189-0.426-0.267  c-0.032-0.017-0.068-0.035-0.107-0.054c-7.495-3.719-14.405-8.386-20.627-13.924c-0.005-0.004-0.01-0.009-0.015-0.013  c-0.996-0.887-1.972-1.798-2.932-2.729c-0.105-0.103-0.21-0.207-0.315-0.31c-0.919-0.9-1.824-1.815-2.71-2.756  c-0.008-0.009-0.017-0.018-0.025-0.026c-0.006-0.007-0.014-0.012-0.02-0.018c-0.225-0.237-0.462-0.456-0.708-0.657  c-0.021-0.017-0.044-0.033-0.065-0.05c-0.074-0.059-0.153-0.107-0.229-0.163c-0.11-0.081-0.217-0.165-0.33-0.239  c-0.336-0.371-0.67-0.742-0.999-1.117c-0.462-0.526-0.922-1.054-1.371-1.588c-0.488-0.582-0.964-1.173-1.436-1.765  c-0.431-0.54-0.862-1.081-1.281-1.629c-0.462-0.606-0.91-1.221-1.356-1.836c-0.401-0.553-0.802-1.106-1.19-1.666  c-0.435-0.63-0.855-1.268-1.273-1.906c-0.37-0.564-0.742-1.127-1.099-1.698c-0.408-0.653-0.798-1.314-1.189-1.975  c-0.339-0.574-0.682-1.147-1.008-1.727c-0.379-0.674-0.738-1.357-1.1-2.039c-0.309-0.584-0.623-1.166-0.92-1.756  c-0.348-0.693-0.676-1.396-1.006-2.096c-0.28-0.594-0.565-1.185-0.832-1.783c-0.317-0.713-0.613-1.435-0.912-2.154  c-0.249-0.601-0.506-1.199-0.743-1.804c-0.286-0.733-0.549-1.474-0.816-2.213c-0.219-0.606-0.447-1.209-0.653-1.819  c-0.254-0.753-0.484-1.514-0.719-2.274c-0.188-0.608-0.386-1.213-0.562-1.825c-0.222-0.773-0.417-1.553-0.618-2.332  c-0.158-0.61-0.327-1.217-0.473-1.83c-0.188-0.795-0.348-1.596-0.516-2.396c-0.127-0.607-0.267-1.21-0.382-1.82  c-0.155-0.822-0.28-1.651-0.413-2.478c-0.096-0.596-0.206-1.19-0.29-1.788c-0.122-0.869-0.212-1.743-0.31-2.617  c-0.063-0.564-0.142-1.125-0.195-1.69c-0.09-0.969-0.146-1.943-0.206-2.917c-0.029-0.477-0.076-0.952-0.099-1.431  c-0.068-1.455-0.103-2.913-0.103-4.378v-34.641c10.446,0.629,29.412,1.007,50.084-2.273  C247.709,174.813,273.376,160.761,287.702,139.437z M91.942,243.558c4.487-7.92,14.288-25.941,24.314-49.055  c12.909-29.757,21.458-56.842,25.553-80.884l6.371,13.4c1.243,2.613,3.878,4.279,6.771,4.279h101.559h0.205h18.385  c-0.264,0.39-0.535,0.771-0.807,1.153c-0.199,0.279-0.392,0.564-0.595,0.839c-0.363,0.491-0.74,0.969-1.117,1.447  c-0.172,0.218-0.337,0.443-0.511,0.658c-0.549,0.678-1.112,1.342-1.687,1.992c-0.212,0.24-0.434,0.469-0.65,0.706  c-0.374,0.41-0.747,0.822-1.131,1.221c-0.28,0.29-0.569,0.57-0.854,0.855c-0.332,0.332-0.662,0.667-1.001,0.992  c-0.31,0.297-0.629,0.584-0.944,0.874c-0.325,0.299-0.648,0.6-0.979,0.892c-0.334,0.295-0.674,0.581-1.014,0.869  c-0.323,0.275-0.646,0.55-0.975,0.819c-0.353,0.288-0.711,0.569-1.069,0.851c-0.326,0.256-0.652,0.512-0.983,0.763  c-0.37,0.28-0.744,0.555-1.119,0.827c-0.327,0.238-0.656,0.476-0.987,0.709c-0.387,0.272-0.777,0.54-1.17,0.805  c-0.328,0.222-0.658,0.441-0.99,0.659c-0.404,0.264-0.81,0.525-1.219,0.782c-0.327,0.205-0.656,0.408-0.987,0.609  c-0.421,0.256-0.843,0.51-1.27,0.759c-0.325,0.19-0.654,0.376-0.982,0.562c-0.438,0.248-0.877,0.495-1.32,0.736  c-0.319,0.174-0.642,0.342-0.963,0.512c-0.46,0.242-0.919,0.485-1.383,0.72c-0.303,0.154-0.61,0.302-0.915,0.452  c-0.489,0.241-0.977,0.482-1.47,0.714c-0.269,0.127-0.541,0.248-0.812,0.372c-0.536,0.247-1.071,0.494-1.611,0.731  c-0.173,0.076-0.349,0.148-0.523,0.223c-2.884,1.247-5.833,2.368-8.822,3.371c-0.125,0.042-0.25,0.087-0.375,0.128  c-0.637,0.212-1.276,0.414-1.915,0.615c-0.205,0.064-0.409,0.131-0.614,0.195c-0.607,0.187-1.215,0.367-1.824,0.545  c-0.239,0.07-0.479,0.142-0.718,0.211c-0.594,0.17-1.189,0.334-1.784,0.497c-0.254,0.069-0.509,0.14-0.764,0.208  c-0.588,0.157-1.178,0.308-1.766,0.457c-0.262,0.066-0.525,0.133-0.787,0.198c-0.587,0.145-1.175,0.285-1.762,0.423  c-0.262,0.061-0.525,0.122-0.787,0.182c-0.591,0.135-1.182,0.266-1.772,0.394c-0.255,0.055-0.51,0.109-0.766,0.163  c-0.6,0.127-1.201,0.25-1.799,0.369c-0.24,0.048-0.479,0.094-0.719,0.141c-0.614,0.119-1.228,0.236-1.84,0.348  c-0.217,0.04-0.433,0.077-0.65,0.116c-0.635,0.114-1.27,0.225-1.902,0.331c-0.18,0.03-0.359,0.058-0.538,0.088  c-0.669,0.11-1.336,0.217-2.001,0.319c-0.115,0.018-0.23,0.034-0.345,0.051c-4.811,0.725-9.532,1.242-14.05,1.598  c-0.01,0.001-0.021,0.002-0.031,0.002c-0.694,0.055-1.382,0.104-2.066,0.152c-0.094,0.007-0.189,0.014-0.283,0.02  c-0.644,0.044-1.281,0.083-1.914,0.121c-0.129,0.008-0.259,0.016-0.387,0.023c-0.609,0.035-1.213,0.067-1.811,0.096  c-0.149,0.007-0.3,0.015-0.448,0.022c-0.583,0.028-1.161,0.053-1.734,0.076c-0.158,0.006-0.315,0.013-0.472,0.019  c-0.565,0.021-1.124,0.041-1.677,0.058c-0.157,0.005-0.314,0.009-0.47,0.014c-0.553,0.016-1.101,0.03-1.641,0.042  c-0.146,0.003-0.291,0.006-0.436,0.009c-0.546,0.011-1.088,0.02-1.621,0.027c-0.131,0.002-0.26,0.003-0.39,0.005  c-0.543,0.006-1.081,0.011-1.609,0.014c-0.107,0-0.211,0.001-0.317,0.001c-0.547,0.002-1.09,0.003-1.621,0.001  c-0.064,0-0.127-0.001-0.191-0.001c-4.215-0.016-7.926-0.141-10.963-0.296c-0.055-0.003-0.113-0.006-0.168-0.008  c-0.368-0.019-0.723-0.039-1.071-0.058c-0.082-0.005-0.167-0.009-0.247-0.014c-0.329-0.019-0.645-0.038-0.954-0.058  c-0.087-0.005-0.175-0.011-0.26-0.016c-0.292-0.018-0.572-0.037-0.845-0.056c-0.097-0.007-0.195-0.013-0.29-0.02  c-0.251-0.018-0.493-0.035-0.727-0.053c-0.098-0.007-0.196-0.014-0.291-0.022c-0.225-0.017-0.442-0.034-0.649-0.05  c-0.088-0.007-0.174-0.014-0.259-0.021c-0.196-0.016-0.386-0.032-0.564-0.047c-0.081-0.007-0.158-0.014-0.236-0.02  c-0.166-0.014-0.329-0.029-0.477-0.042c-0.075-0.007-0.144-0.013-0.214-0.02c-0.138-0.013-0.276-0.025-0.397-0.037  c-0.049-0.005-0.09-0.009-0.136-0.013c-0.126-0.012-0.251-0.024-0.355-0.035c-0.024-0.002-0.043-0.004-0.066-0.007  c-0.107-0.011-0.209-0.021-0.289-0.03c-0.027-0.003-0.045-0.005-0.069-0.007c-0.06-0.007-0.121-0.013-0.161-0.017  c-0.056-0.006-0.096-0.011-0.111-0.013c-2.13-0.26-4.268,0.41-5.872,1.833c-1.003,0.89-1.738,2.021-2.148,3.268  c-0.246,0.749-0.375,1.538-0.375,2.342v42.786c0,1.296,0.031,2.587,0.076,3.877c0.008,0.236,0.015,0.472,0.025,0.707  c0.052,1.24,0.125,2.475,0.219,3.708c0.018,0.236,0.039,0.472,0.059,0.708c0.106,1.276,0.227,2.548,0.377,3.816  c0.002,0.018,0.005,0.035,0.007,0.053c0.15,1.26,0.328,2.512,0.522,3.762c0.035,0.223,0.067,0.447,0.103,0.669  c0.196,1.215,0.413,2.425,0.65,3.63c0.045,0.23,0.093,0.458,0.14,0.688c0.253,1.244,0.521,2.482,0.817,3.714  c0.007,0.027,0.014,0.054,0.021,0.081c0.294,1.219,0.615,2.429,0.951,3.635c0.058,0.208,0.114,0.417,0.173,0.624  c0.337,1.18,0.694,2.352,1.07,3.519c0.071,0.221,0.145,0.441,0.218,0.662c0.395,1.199,0.806,2.392,1.243,3.575  c0.015,0.04,0.031,0.079,0.046,0.119c0.432,1.164,0.888,2.318,1.36,3.466c0.079,0.193,0.157,0.387,0.237,0.579  c0.473,1.133,0.967,2.256,1.479,3.373c0.097,0.211,0.196,0.421,0.294,0.631c0.533,1.142,1.08,2.277,1.653,3.4  c0.027,0.052,0.055,0.104,0.082,0.157c0.562,1.097,1.147,2.182,1.746,3.26c0.099,0.178,0.197,0.358,0.297,0.536  c0.605,1.072,1.23,2.134,1.872,3.186c0.123,0.202,0.249,0.403,0.373,0.604c0.664,1.072,1.343,2.136,2.045,3.187  c0.042,0.063,0.086,0.125,0.129,0.188c0.684,1.018,1.39,2.023,2.11,3.02c0.077,0.107,0.148,0.217,0.226,0.324  c-5.454,0.406-12.443,0.346-20.302-1.072C126.212,275.803,107.451,263.656,91.942,243.558z M174.416,350.726l12.238-50.52  c5.879,4.89,12.252,9.138,19.058,12.7l34.047,59.386L174.416,350.726z M272.242,372.291l34.048-59.386  c6.806-3.562,13.178-7.81,19.057-12.7l12.239,50.519L272.242,372.291z"/>
<path d="M265.145,20.73h-18.291c-6.955,0-12.613,5.658-12.613,12.614v10.892h-10.893c-6.955,0-12.613,5.658-12.613,12.614v18.291  c0,6.956,5.658,12.614,12.613,12.614h10.893v10.892c0,6.955,5.658,12.614,12.613,12.614h18.291c6.956,0,12.614-5.658,12.614-12.614  V87.755h10.892c6.955,0,12.613-5.658,12.613-12.614V56.85c0-6.956-5.658-12.614-12.613-12.614h-10.892V33.344  C277.759,26.388,272.101,20.73,265.145,20.73z M286.27,59.231V72.76h-16.009c-4.142,0-7.498,3.357-7.498,7.498v16.009h-13.529  V80.257c0-4.141-3.357-7.498-7.498-7.498h-16.009V59.231h16.009c4.141,0,7.498-3.357,7.498-7.498V35.725h13.528v16.009  c0,4.141,3.356,7.498,7.498,7.498H286.27z"/>
<path d="M377.937,457.734c0-4.141-3.357-7.497-7.497-7.497h-75.906c-4.142,0-7.498,3.357-7.498,7.497  c0,4.141,3.356,7.498,7.498,7.498h75.906C374.581,465.232,377.937,461.875,377.937,457.734z"/>
<g>
</g>
<g>
</g>
<g>
</g>
<g>
</g>
<g>
</g>
<g>
</g>
<g>
</g>
<g>
</g>
<g>
</g>
<g>
</g>
<g>
</g>
<g>
</g>
<g>
</g>
<g>
</g>
<g>
</g>
</svg>
