<?xml version="1.0" encoding="iso-8859-1"?>
<!-- Generator: Adobe Illustrator 19.0.0, SVG Export Plug-In . SVG Version: 6.00 Build 0)  -->
<svg xmlns="http://www.w3.org/2000/svg" xmlns:xlink="http://www.w3.org/1999/xlink" version="1.1" id="Capa_1" x="0px" y="0px" viewBox="0 0 512 512" style="enable-background:new 0 0 512 512;" xml:space="preserve">
<circle style="fill:#7A7A7A;" cx="255.996" cy="255.995" r="248.509"/>
<path style="fill:#666666;" d="M256,7.496c-5.035,0-10.03,0.168-14.992,0.463C371.272,15.712,474.522,123.79,474.522,256  S371.271,496.288,241.009,504.042c4.961,0.295,9.956,0.463,14.992,0.463c137.245,0,248.504-111.259,248.504-248.504  S393.246,7.496,256,7.496z"/>
<circle style="fill:#E0E0E0;" cx="255.996" cy="255.995" r="207.852"/>
<path style="fill:#EF3A47;" d="M255.29,414.897c-35.356,0-64.019-22.259-64.019-49.717c0-27.457,28.662-37.172,64.019-37.172  s64.018,9.714,64.018,37.172C319.309,392.638,290.646,414.897,255.29,414.897z"/>
<path style="fill:#CE3043;" d="M255.29,328.008c-5.165,0-10.18,0.214-14.992,0.654c28.121,2.57,49.026,13.071,49.026,36.517  c0,23.447-20.906,43.09-49.026,48.332c4.811,0.896,9.826,1.384,14.992,1.384c35.356,0,64.018-22.259,64.018-49.717  C319.308,337.721,290.646,328.008,255.29,328.008z"/>
<path style="fill:#EF3A47;" d="M361.395,362.733c-35.356,0-64.018-22.258-64.018-49.717c0-27.457,28.662-37.172,64.018-37.172  s64.018,9.713,64.018,37.172C425.413,340.474,396.751,362.733,361.395,362.733z"/>
<path style="fill:#CE3043;" d="M361.395,275.845c-5.165,0-10.18,0.215-14.992,0.654c28.121,2.57,49.027,13.072,49.027,36.517  c0,23.447-20.906,43.09-49.027,48.332c4.811,0.896,9.826,1.384,14.992,1.384c35.356,0,64.019-22.258,64.019-49.717  C425.413,285.558,396.751,275.845,361.395,275.845z"/>
<path style="fill:#EF3A47;" d="M204.974,202.683c-35.356,0-64.019-22.258-64.019-49.717c0-27.457,28.662-37.172,64.019-37.172  s64.018,9.714,64.018,37.172C268.993,180.425,240.331,202.683,204.974,202.683z"/>
<path style="fill:#CE3043;" d="M204.974,115.795c-5.165,0-10.18,0.214-14.992,0.654c28.121,2.57,49.027,13.071,49.027,36.517  s-20.906,43.09-49.027,48.332c4.811,0.896,9.826,1.384,14.992,1.384c35.356,0,64.018-22.258,64.018-49.717  S240.331,115.795,204.974,115.795z"/>
<path style="fill:#EF3A47;" d="M109.703,304.393c-24.517-24.517-28.958-59.827-9.917-78.867s45.651-5.901,70.168,18.616  s37.657,51.128,18.616,70.168C169.531,333.349,134.22,328.91,109.703,304.393z"/>
<path style="fill:#CE3043;" d="M169.955,244.141c-21.583-21.583-44.787-34.336-63.021-24.092  c10.862,4.579,22.155,13.211,33.038,24.092c24.517,24.517,37.657,51.128,18.616,70.168c-4.534,4.534-9.999,7.722-16.014,9.639  c17.292,4.746,34.573,1.785,45.997-9.639C207.611,295.269,194.472,268.658,169.955,244.141z"/>
<path style="fill:#EF3A47;" d="M331.839,227.805c-24.517,24.517-59.827,28.958-78.867,9.917  c-19.04-19.04-5.901-45.651,18.616-70.168c24.517-24.517,51.128-37.657,70.168-18.616  C360.795,167.978,356.356,203.288,331.839,227.805z"/>
<path style="fill:#CE3043;" d="M341.755,148.938c-10.589-10.589-23.521-11.215-37.13-5.476c2.479,1.392,4.868,3.198,7.147,5.476  c19.04,19.04,14.6,54.35-9.917,78.867c-9.807,9.807-21.341,16.392-32.87,19.556c19.24,6.132,44.175-0.878,62.853-19.556  C356.356,203.288,360.796,167.978,341.755,148.938z"/>
<path style="fill:#BFBFBF;" d="M463.857,256c0-114.796-93.06-207.856-207.856-207.856S48.144,141.204,48.144,256  S141.205,463.856,256,463.856S463.857,370.796,463.857,256z M256.001,442.82c-103.013,0-186.82-83.808-186.82-186.821  S152.988,69.18,256.001,69.18s186.82,83.807,186.82,186.82S359.014,442.82,256.001,442.82z"/>
<g>
	<circle style="fill:#F2CA5A;" cx="397.046" cy="233.987" r="17.55"/>
	<circle style="fill:#F2CA5A;" cx="253.447" cy="284.689" r="17.55"/>
	<circle style="fill:#F2CA5A;" cx="151.315" cy="366.732" r="17.55"/>
	<circle style="fill:#F2CA5A;" cx="289.127" cy="99.274" r="17.55"/>
</g>
<path d="M368.114,422.082c-33.152,22.425-71.92,34.279-112.113,34.279c-110.479,0-200.362-89.882-200.362-200.362  c0-52.438,20.123-102.023,56.659-139.622c2.885-2.969,2.816-7.715-0.152-10.599c-2.968-2.884-7.715-2.817-10.599,0.152  c-39.272,40.413-60.9,93.708-60.9,150.069c0,57.523,22.4,111.603,63.075,152.277c40.674,40.675,94.754,63.075,152.277,63.075  c43.199,0,84.871-12.744,120.513-36.853c3.429-2.319,4.329-6.979,2.009-10.408C376.203,420.661,371.543,419.763,368.114,422.082z"/>
<path d="M437.02,74.981C388.668,26.628,324.381,0,256.001,0c-68.38,0-132.669,26.628-181.02,74.981C26.628,123.332,0,187.619,0,256  c0,68.38,26.628,132.668,74.981,181.019C123.333,485.372,187.62,512,256,512s132.667-26.629,181.018-74.981  C485.372,388.668,512,324.38,512,256C512,187.619,485.372,123.332,437.02,74.981z M426.419,426.418  c-45.52,45.52-106.043,70.59-170.418,70.59s-124.899-25.07-170.419-70.59S14.992,320.376,14.992,256s25.07-124.898,70.59-170.418  c45.52-45.521,106.043-70.59,170.419-70.59s124.897,25.069,170.417,70.59c45.521,45.52,70.59,106.043,70.59,170.418  S471.94,380.898,426.419,426.418z"/>
<path d="M408.277,103.723c-40.675-40.675-94.754-63.075-152.276-63.075c-47.459,0-92.47,15.136-130.161,43.773  c-3.296,2.505-3.938,7.207-1.434,10.503c2.505,3.297,7.205,3.938,10.503,1.434c35.062-26.638,76.936-40.718,121.092-40.718  c110.479,0,200.361,89.881,200.361,200.361c0,27.928-5.634,54.95-16.743,80.314c-10.734,24.504-26.048,46.325-45.515,64.851  c-2.999,2.853-3.116,7.599-0.263,10.597c1.473,1.549,3.45,2.329,5.431,2.329c1.856,0,3.716-0.686,5.166-2.066  c20.919-19.907,37.375-43.355,48.912-69.695c11.946-27.272,18.004-56.317,18.004-86.329  C471.353,198.478,448.952,144.398,408.277,103.723z"/>
<path d="M273.378,367.714c-0.16,0.126-16.199,12.488-35.121-0.328c-3.429-2.322-8.088-1.424-10.41,2.003  c-2.321,3.428-1.425,8.088,2.003,10.41c9.085,6.153,18.111,8.358,26.196,8.358c11.794,0,21.586-4.694,26.632-8.686  c3.247-2.568,3.798-7.282,1.228-10.528C281.34,365.695,276.625,365.145,273.378,367.714z"/>
<path d="M289.881,313.016c0,4.028,0.53,7.958,1.524,11.753c-9.417-2.658-21.253-4.257-36.116-4.257  c-62.224,0-71.514,27.985-71.514,44.667c0,31.547,32.082,57.213,71.514,57.213s71.513-25.665,71.513-57.213  c0-0.693-0.018-1.407-0.053-2.136c10.271,4.57,22.08,7.184,34.643,7.184c39.433,0,71.514-25.665,71.514-57.213  c0-16.682-9.291-44.667-71.514-44.667C299.172,268.349,289.881,296.334,289.881,313.016z M255.29,407.401  c-31.166,0-56.523-18.94-56.523-42.221c0-13.538,9.806-29.675,56.523-29.675c46.716,0,56.522,16.137,56.522,29.675  C311.812,388.461,286.456,407.401,255.29,407.401z M417.917,313.016c0,23.281-25.356,42.221-56.523,42.221  c-18.409,0-34.785-6.61-45.112-16.818c-0.12-0.123-0.243-0.245-0.365-0.367c-6.935-7.01-11.044-15.67-11.044-25.036  c0-13.538,9.806-29.675,56.522-29.675C408.111,283.341,417.917,299.477,417.917,313.016z"/>
<path d="M333.952,317.224c-2.321,3.428-1.425,8.088,2.003,10.41c9.085,6.153,18.111,8.358,26.196,8.358  c11.794,0,21.586-4.694,26.631-8.686c3.247-2.568,3.798-7.282,1.229-10.528c-2.567-3.247-7.281-3.799-10.528-1.229  c-0.16,0.126-16.198,12.488-35.121-0.328C340.933,312.9,336.274,313.797,333.952,317.224z"/>
<path d="M133.461,152.967c0,31.546,32.082,57.212,71.515,57.212c12.103,0,23.507-2.427,33.51-6.69  c-4.629,15.216-1.48,28.869,9.185,39.535c9.172,9.172,21.616,14.021,35.625,14.021c2.613,0,5.28-0.169,7.99-0.51  c16.54-2.08,32.823-10.4,45.853-23.429c13.029-13.03,21.349-29.313,23.429-45.853c2.169-17.244-2.63-32.733-13.512-43.616  c-10.663-10.662-33.413-22.509-70.569,9.163c-0.061-16.701-9.495-44.501-71.512-44.501  C142.752,108.3,133.461,136.285,133.461,152.967z M276.888,172.855c19.131-19.131,33.212-25.408,43.459-25.408  c7.059,0,12.298,2.98,16.107,6.791c7.536,7.535,10.817,18.596,9.239,31.143c-1.666,13.253-8.47,26.436-19.156,37.122  c-21.555,21.555-52.181,26.005-68.266,9.917c-6.954-6.953-8.607-15.021-5.204-25.393  C256.375,196.947,264.613,185.129,276.888,172.855z M261.497,152.967c0,23.281-25.356,42.22-56.522,42.22  c-31.167,0-56.523-18.939-56.523-42.22c0-13.538,9.805-29.675,56.523-29.675C251.691,123.291,261.497,139.429,261.497,152.967z"/>
<path d="M177.532,157.176c-2.321,3.428-1.425,8.088,2.003,10.41c9.086,6.153,18.111,8.358,26.197,8.358  c11.793,0,21.586-4.694,26.631-8.686c3.246-2.568,3.797-7.282,1.228-10.529c-2.568-3.247-7.283-3.797-10.529-1.228  c-0.16,0.126-16.195,12.491-35.12-0.328C184.513,152.849,179.854,153.748,177.532,157.176z"/>
<path d="M94.486,220.224c-21.932,21.933-17.483,62.068,9.917,89.469c13.03,13.029,29.313,21.349,45.853,23.429  c2.711,0.341,5.377,0.51,7.99,0.51c14.008,0,26.454-4.851,35.625-14.021c11.605-11.606,24.62-37.533-18.616-80.769  C132.018,195.604,106.092,208.62,94.486,220.224z M164.654,249.442c32.311,32.31,27.958,50.227,18.616,59.567  c-16.089,16.087-46.712,11.638-68.266-9.917c-10.686-10.686-17.49-23.869-19.156-37.123c-1.578-12.548,1.703-23.609,9.239-31.143  c3.811-3.811,9.048-6.791,16.107-6.791C131.441,224.034,145.525,230.313,164.654,249.442z"/>
<path d="M152.588,298.549c0.295,0.035,0.588,0.052,0.879,0.052c3.751,0,6.99-2.811,7.435-6.628c0.48-4.112-2.465-7.835-6.576-8.313  c-0.197-0.023-19.786-2.558-24.001-24.465c-0.783-4.065-4.712-6.724-8.777-5.945c-4.065,0.783-6.726,4.712-5.945,8.777  C120.617,288.087,141.987,297.312,152.588,298.549z"/>
<path d="M289.118,222.042c0.47,0,0.945-0.044,1.424-0.136c26.06-5.015,35.286-26.385,36.522-36.986  c0.48-4.112-2.465-7.835-6.576-8.313c-4.099-0.488-7.834,2.464-8.313,6.576c-0.023,0.197-2.558,19.786-24.464,24.001  c-4.065,0.783-6.726,4.712-5.945,8.777C282.456,219.549,285.596,222.042,289.118,222.042z"/>
<path d="M422.087,233.99c0-13.81-11.235-25.046-25.046-25.046c-13.81,0-25.046,11.235-25.046,25.046  c0,13.81,11.235,25.046,25.046,25.046S422.087,247.801,422.087,233.99z M386.988,233.99c0-5.544,4.51-10.054,10.054-10.054  s10.054,4.51,10.054,10.054c0,5.544-4.51,10.054-10.054,10.054S386.988,239.534,386.988,233.99z"/>
<path d="M253.449,274.63c5.544,0,10.054,4.51,10.054,10.054c0,4.141,3.355,7.496,7.496,7.496c4.141,0,7.496-3.355,7.496-7.496  c0-13.81-11.235-25.046-25.046-25.046c-13.81,0-25.046,11.236-25.046,25.046c0,13.81,11.235,25.046,25.046,25.046  c4.141,0,7.496-3.355,7.496-7.496s-3.355-7.496-7.496-7.496c-5.544,0-10.054-4.51-10.054-10.054  C243.395,279.141,247.905,274.63,253.449,274.63z"/>
<path d="M126.274,366.73c0,13.81,11.235,25.046,25.046,25.046c13.81,0,25.046-11.235,25.046-25.046  c0-13.81-11.235-25.045-25.046-25.045C137.509,341.685,126.274,352.92,126.274,366.73z M161.373,366.73  c0,5.544-4.51,10.054-10.054,10.054s-10.054-4.51-10.054-10.054s4.51-10.053,10.054-10.053S161.373,361.187,161.373,366.73z"/>
<path d="M289.126,109.324c-5.544,0-10.054-4.51-10.054-10.054c0-4.141-3.355-7.496-7.496-7.496s-7.496,3.355-7.496,7.496  c0,13.81,11.235,25.046,25.046,25.046c13.81,0,25.046-11.235,25.046-25.046c0-13.81-11.235-25.047-25.046-25.047  c-4.141,0-7.496,3.355-7.496,7.496c0,4.141,3.355,7.496,7.496,7.496c5.544,0,10.054,4.51,10.054,10.055  C299.18,104.814,294.67,109.324,289.126,109.324z"/>
<g>
</g>
<g>
</g>
<g>
</g>
<g>
</g>
<g>
</g>
<g>
</g>
<g>
</g>
<g>
</g>
<g>
</g>
<g>
</g>
<g>
</g>
<g>
</g>
<g>
</g>
<g>
</g>
<g>
</g>
</svg>
