<?xml version="1.0" encoding="iso-8859-1"?>
<!-- Generator: Adobe Illustrator 19.0.0, SVG Export Plug-In . SVG Version: 6.00 Build 0)  -->
<svg xmlns="http://www.w3.org/2000/svg" xmlns:xlink="http://www.w3.org/1999/xlink" version="1.1" id="Capa_1" x="0px" y="0px" viewBox="0 0 512 512" style="enable-background:new 0 0 512 512;" xml:space="preserve">
<g>
	<rect x="29.607" y="414.949" style="fill:#F9F1EF;" width="118.585" height="44.79"/>
	<rect x="59.487" y="325.368" style="fill:#F9F1EF;" width="118.585" height="44.79"/>
</g>
<g>
	<rect x="119.303" y="414.949" style="fill:#DDDBDB;" width="28.884" height="44.79"/>
	<rect x="149.183" y="325.368" style="fill:#DDDBDB;" width="28.884" height="44.79"/>
</g>
<g>
	<rect x="49.527" y="459.74" style="fill:#C6C6C6;" width="118.585" height="44.79"/>
	<rect x="47.535" y="370.159" style="fill:#C6C6C6;" width="118.585" height="44.79"/>
	<rect x="39.014" y="280.577" style="fill:#C6C6C6;" width="118.585" height="44.79"/>
</g>
<g>
	<rect x="138.227" y="459.74" style="fill:#ADADAD;" width="29.88" height="44.79"/>
	<rect x="136.235" y="370.159" style="fill:#ADADAD;" width="29.88" height="44.79"/>
	<rect x="127.709" y="280.577" style="fill:#ADADAD;" width="29.88" height="44.79"/>
</g>
<rect x="182.052" y="42.528" style="fill:#EF3A47;" width="300.338" height="78.934"/>
<rect x="452.51" y="42.528" style="fill:#CE3043;" width="29.88" height="78.934"/>
<rect x="212.271" y="7.47" style="fill:#9B3E2C;" width="239.91" height="35.06"/>
<rect x="422.3" y="7.47" style="fill:#772533;" width="30.216" height="35.06"/>
<rect x="217.56" y="121.464" style="fill:#F2CA5A;" width="229.322" height="383.067"/>
<rect x="417.002" y="121.464" style="fill:#FFAE47;" width="29.88" height="383.067"/>
<rect x="217.56" y="216.693" style="fill:#F9F1EF;" width="229.322" height="192.609"/>
<rect x="417.002" y="216.693" style="fill:#CCCCCC;" width="29.88" height="192.609"/>
<rect x="217.56" y="250.458" style="fill:#FFAE47;" width="148.117" height="125.079"/>
<rect x="335.797" y="250.458" style="fill:#F4932A;" width="29.88" height="125.079"/>
<path d="M482.394,35.058h-22.746V7.47c0-4.125-3.345-7.47-7.47-7.47H212.269c-4.125,0-7.47,3.345-7.47,7.47v27.588h-22.747  c-4.125,0-7.47,3.345-7.47,7.47v78.936c0,4.125,3.345,7.47,7.47,7.47h28.038v87.757v33.765v125.081v33.765v95.228  c0,4.125,3.345,7.47,7.47,7.47h229.324c4.125,0,7.47-3.345,7.47-7.47v-95.228v-192.61v-87.758h28.039c4.125,0,7.47-3.345,7.47-7.47  V42.528C489.864,38.402,486.519,35.058,482.394,35.058z M219.739,14.94h224.969v20.117H219.739V14.94z M225.031,334.42h81.648  c4.125,0,7.47-3.345,7.47-7.47s-3.345-7.47-7.47-7.47h-81.648v-19.192h81.648c4.125,0,7.47-3.345,7.47-7.47s-3.345-7.47-7.47-7.47  h-81.648v-27.42h133.174v110.14H225.031V334.42z M439.415,209.222h-35.336c-4.125,0-7.47,3.345-7.47,7.47s3.345,7.47,7.47,7.47  h35.336v177.67H292.179c-4.125,0-7.47,3.345-7.47,7.47s3.345,7.47,7.47,7.47h147.236v80.288H225.031v-80.288H262.3  c4.125,0,7.47-3.345,7.47-7.47s-3.345-7.47-7.47-7.47h-37.269v-18.825h140.644c4.125,0,7.47-3.345,7.47-7.47V250.456  c0-4.125-3.345-7.47-7.47-7.47H225.031v-18.825H374.2c4.125,0,7.47-3.345,7.47-7.47s-3.345-7.47-7.47-7.47H225.031v-80.287h214.384  V209.222z M474.924,113.994h-28.039h-2.546V81.979c0-4.125-3.345-7.47-7.47-7.47s-7.47,3.345-7.47,7.47v32.015h-26.918V81.979  c0-4.125-3.345-7.47-7.47-7.47s-7.47,3.345-7.47,7.47v32.015h-26.918V81.979c0-4.125-3.345-7.47-7.47-7.47s-7.47,3.345-7.47,7.47  v32.015h-26.918V81.979c0-4.125-3.345-7.47-7.47-7.47s-7.47,3.345-7.47,7.47v32.015h-26.918V81.979c0-4.125-3.345-7.47-7.47-7.47  s-7.47,3.345-7.47,7.47v32.015h-26.918V81.979c0-4.125-3.345-7.47-7.47-7.47s-7.47,3.345-7.47,7.47v32.015h-2.547h-28.038V49.998  h22.746h239.909h22.746L474.924,113.994L474.924,113.994z"/>
<path d="M178.068,317.9h-13.007v-37.32c0-4.125-3.345-7.47-7.47-7.47H39.01c-4.125,0-7.47,3.345-7.47,7.47v44.79  c0,4.125,3.345,7.47,7.47,7.47h13.007v29.85h-4.482c-4.125,0-7.47,3.345-7.47,7.47v37.32H29.607c-4.125,0-7.47,3.345-7.47,7.47  v44.79c0,4.125,3.345,7.47,7.47,7.47h12.45v37.32c0,4.125,3.345,7.47,7.47,7.47h118.58c4.125,0,7.47-3.345,7.47-7.47V459.74  c0-4.125-3.345-7.47-7.47-7.47h-12.45v-29.85h10.458c4.125,0,7.47-3.345,7.47-7.47v-37.32h4.482c4.125,0,7.47-3.345,7.47-7.47  v-44.79C185.538,321.244,182.193,317.9,178.068,317.9z M66.958,332.84h16.403c4.125,0,7.47-3.345,7.47-7.47s-3.345-7.47-7.47-7.47  H59.487H46.48v-29.85h103.641v29.85h-36.879h-0.001c-4.125,0-7.47,3.345-7.47,7.47s3.345,7.47,7.47,7.47h0.001h44.35h13.007v29.85  h-4.482H66.958V332.84z M140.717,452.27h-21.414h-0.001c-4.125,0-7.47,3.345-7.47,7.47s3.345,7.47,7.47,7.47h0.001h28.884h12.45  v29.85H56.997v-29.85h35.328c4.125,0,7.47-3.345,7.47-7.47s-3.345-7.47-7.47-7.47H49.527h-12.45v-29.85h10.458h93.182V452.27z   M158.646,407.48h-10.458H55.005v-29.85h4.482h99.158V407.48z"/>
<g>
</g>
<g>
</g>
<g>
</g>
<g>
</g>
<g>
</g>
<g>
</g>
<g>
</g>
<g>
</g>
<g>
</g>
<g>
</g>
<g>
</g>
<g>
</g>
<g>
</g>
<g>
</g>
<g>
</g>
</svg>
