<?xml version="1.0" encoding="iso-8859-1"?>
<!-- Generator: Adobe Illustrator 19.0.0, SVG Export Plug-In . SVG Version: 6.00 Build 0)  -->
<svg xmlns="http://www.w3.org/2000/svg" xmlns:xlink="http://www.w3.org/1999/xlink" version="1.1" id="Capa_1" x="0px" y="0px" viewBox="0 0 512 512" style="enable-background:new 0 0 512 512;" xml:space="preserve">
<g>
	<rect x="7.513" y="151.598" style="fill:#9B3E2C;" width="496.977" height="47.364"/>
	<rect x="7.513" y="426.944" style="fill:#9B3E2C;" width="496.977" height="59.285"/>
</g>
<g>
	<rect x="474.438" y="151.598" style="fill:#772533;" width="30.053" height="47.364"/>
	<rect x="474.438" y="426.944" style="fill:#772533;" width="30.053" height="59.285"/>
</g>
<rect x="40.821" y="79.065" style="fill:#F9F1EF;" width="128.597" height="26.474"/>
<rect x="140.368" y="79.065" style="fill:#DDDBDB;" width="29.051" height="26.474"/>
<g>
	<rect x="60.647" y="105.537" style="fill:#E0E0E0;" width="88.957" height="46.062"/>
	<path style="fill:#E0E0E0;" d="M60.645,198.967v151.498c0,24.564,19.913,44.478,44.478,44.478l0,0   c24.564,0,44.478-19.913,44.478-44.478V198.967H60.645z"/>
</g>
<rect x="60.647" y="25.767" style="fill:#565656;" width="88.957" height="53.294"/>
<rect x="119.541" y="25.767" style="fill:#494949;" width="30.053" height="53.294"/>
<path style="fill:#BFBFBF;" d="M119.546,198.967v151.498c0,19.29-12.282,35.706-29.451,41.868c4.694,1.685,9.752,2.609,15.027,2.609  l0,0c24.564,0,44.478-19.913,44.478-44.478V198.967H119.546z"/>
<path style="fill:#EF3A47;" d="M60.645,235.518v114.946c0,24.564,19.913,44.478,44.478,44.478l0,0  c24.564,0,44.478-19.913,44.478-44.478V235.518H60.645z"/>
<rect x="119.541" y="105.537" style="fill:#BFBFBF;" width="30.053" height="46.062"/>
<path style="fill:#CE3043;" d="M119.546,235.518v114.946c0,19.29-12.282,35.706-29.451,41.868c4.694,1.685,9.752,2.609,15.027,2.609  l0,0c24.564,0,44.478-19.913,44.478-44.478V235.518H119.546z"/>
<rect x="191.538" y="79.065" style="fill:#F9F1EF;" width="128.597" height="26.474"/>
<rect x="291.084" y="79.065" style="fill:#DDDBDB;" width="29.051" height="26.474"/>
<g>
	<rect x="211.363" y="105.537" style="fill:#E0E0E0;" width="88.957" height="46.062"/>
	<path style="fill:#E0E0E0;" d="M211.358,198.967v151.498c0,24.564,19.913,44.478,44.478,44.478l0,0   c24.564,0,44.478-19.913,44.478-44.478V198.967H211.358z"/>
</g>
<rect x="211.363" y="25.767" style="fill:#565656;" width="88.957" height="53.294"/>
<rect x="270.257" y="25.767" style="fill:#494949;" width="30.053" height="53.294"/>
<path style="fill:#BFBFBF;" d="M270.259,198.967v151.498c0,19.29-12.282,35.706-29.451,41.868c4.694,1.685,9.752,2.609,15.027,2.609  l0,0c24.564,0,44.478-19.913,44.478-44.478V198.967H270.259z"/>
<path style="fill:#EF3A47;" d="M211.358,235.518v114.946c0,24.564,19.913,44.478,44.478,44.478l0,0  c24.564,0,44.478-19.913,44.478-44.478V235.518H211.358z"/>
<rect x="270.257" y="105.537" style="fill:#BFBFBF;" width="30.053" height="46.062"/>
<path style="fill:#CE3043;" d="M270.259,235.518v114.946c0,19.29-12.282,35.706-29.451,41.868c4.694,1.685,9.752,2.609,15.027,2.609  l0,0c24.564,0,44.478-19.913,44.478-44.478V235.518H270.259z"/>
<rect x="342.575" y="79.065" style="fill:#F9F1EF;" width="128.597" height="26.474"/>
<rect x="442.131" y="79.065" style="fill:#DDDBDB;" width="29.051" height="26.474"/>
<rect x="362.4" y="105.537" style="fill:#E0E0E0;" width="88.957" height="46.062"/>
<rect x="362.4" y="25.767" style="fill:#565656;" width="88.957" height="53.294"/>
<rect x="421.304" y="25.767" style="fill:#494949;" width="30.053" height="53.294"/>
<rect x="421.304" y="105.537" style="fill:#BFBFBF;" width="30.053" height="46.062"/>
<path style="fill:#E0E0E0;" d="M362.4,198.967v151.498c0,24.564,19.913,44.478,44.477,44.478l0,0  c24.564,0,44.478-19.913,44.478-44.478V198.967H362.4z"/>
<path style="fill:#BFBFBF;" d="M421.301,198.967v151.498c0,19.29-12.282,35.706-29.451,41.868c4.694,1.685,9.752,2.609,15.027,2.609  l0,0c24.564,0,44.478-19.913,44.478-44.478V198.967H421.301z"/>
<path style="fill:#EF3A47;" d="M362.4,235.518v114.946c0,24.564,19.913,44.478,44.477,44.478l0,0  c24.564,0,44.478-19.913,44.478-44.478V235.518H362.4z"/>
<path style="fill:#CE3043;" d="M421.301,235.518v114.946c0,19.29-12.282,35.706-29.451,41.868c4.694,1.685,9.752,2.609,15.027,2.609  l0,0c24.564,0,44.478-19.913,44.478-44.478V235.518H421.301z"/>
<path d="M504.487,206.48c4.149,0,7.513-3.364,7.513-7.513v-47.365c0-4.149-3.364-7.513-7.513-7.513h-45.619v-31.036h12.31  c4.149,0,7.513-3.364,7.513-7.513V79.065c0-4.149-3.364-7.513-7.513-7.513h-12.31V25.767c0-4.149-3.363-7.513-7.513-7.513H362.4  c-4.15,0-7.513,3.364-7.513,7.513v45.785h-12.31c-4.149,0-7.513,3.364-7.513,7.513v26.474c0,4.149,3.364,7.513,7.513,7.513h12.31  v31.036h-14.25c-4.15,0-7.513,3.364-7.513,7.513s3.363,7.513,7.513,7.513h156.337v32.338h-45.619H362.4h-62.088h-88.955h-61.758  H60.645H15.027v-32.338h295.558c4.15,0,7.513-3.364,7.513-7.513s-3.363-7.513-7.513-7.513h-2.759v-31.036h12.31  c4.149,0,7.513-3.364,7.513-7.513V79.065c0-4.149-3.364-7.513-7.513-7.513h-12.31V25.767c0-4.149-3.363-7.513-7.513-7.513h-88.955  c-4.15,0-7.513,3.364-7.513,7.513v45.785h-12.31c-4.15,0-7.513,3.364-7.513,7.513v26.474c0,4.149,3.363,7.513,7.513,7.513h12.31  v31.036h-46.732v-31.036h12.311c4.15,0,7.513-3.364,7.513-7.513V79.065c0-4.149-3.363-7.513-7.513-7.513h-12.311V25.767  c0-4.149-3.363-7.513-7.513-7.513H60.645c-4.149,0-7.513,3.364-7.513,7.513v45.785h-12.31c-4.149,0-7.513,3.364-7.513,7.512  l-0.001,26.474c0,1.993,0.791,3.904,2.2,5.313c1.409,1.409,3.32,2.201,5.313,2.201h12.311v31.036H7.513  c-4.15,0-7.513,3.364-7.513,7.513v47.365c0,4.149,3.363,7.513,7.513,7.513h13.519v212.954H7.513c-4.15,0-7.513,3.364-7.513,7.513  v59.287c0,4.149,3.363,7.513,7.513,7.513h496.972c4.15,0,7.513-3.364,7.513-7.513v-59.287c0-4.149-3.363-7.513-7.513-7.513h-11.713  V206.48H504.487z M369.913,33.28h73.929v38.272h-73.929V33.28z M350.09,86.578h12.31h88.955h12.31v11.447h-12.31H362.4h-12.31  L350.09,86.578L350.09,86.578z M443.842,113.052v31.036h-73.929v-31.036C369.913,113.052,443.842,113.052,443.842,113.052z   M218.87,33.28h73.929v38.272H218.87L218.87,33.28L218.87,33.28z M199.047,86.578h12.31h88.955h12.31v11.447h-12.31h-88.955h-12.31  L199.047,86.578L199.047,86.578z M292.799,113.052v31.036H218.87v-31.036C218.87,113.052,292.799,113.052,292.799,113.052z   M68.158,33.28h73.928v38.272H68.158V33.28z M48.335,86.578h12.31h88.954h12.311v11.447h-12.311H60.645H48.334L48.335,86.578z   M142.086,113.052v31.036H68.158v-31.036C68.158,113.052,142.086,113.052,142.086,113.052z M443.842,206.48v21.525h-73.929V206.48  H443.842z M292.799,206.48v21.525H218.87V206.48H292.799z M218.87,243.032h73.929v107.434c0,20.382-16.582,36.963-36.964,36.963  s-36.963-16.582-36.963-36.963L218.87,243.032L218.87,243.032z M142.086,206.48v21.525H68.158V206.48H142.086z M477.746,419.433  H192.144c-4.15,0-7.513,3.364-7.513,7.513s3.363,7.513,7.513,7.513h304.828v44.26H15.027v-44.26h147.065  c4.15,0,7.513-3.364,7.513-7.513s-3.363-7.513-7.513-7.513H36.059V206.48h17.073v29.038v37.15v0.001  c0,4.149,3.364,7.513,7.513,7.513c4.15,0,7.513-3.364,7.513-7.513v-0.001v-29.637h73.928v107.434  c0,20.382-16.582,36.963-36.963,36.963s-36.963-16.582-36.963-36.963v-47.743c0-4.149-3.363-7.513-7.513-7.513  c-4.149,0-7.513,3.364-7.513,7.513v47.743c0,28.668,23.322,51.99,51.991,51.99s51.99-23.323,51.99-51.99V235.518V206.48h46.732  v29.038v114.947c0,28.668,23.323,51.99,51.991,51.99s51.99-23.323,51.99-51.99V235.518V206.48h47.061v29.038v37.15v0.001  c0,4.149,3.363,7.513,7.513,7.513c4.15,0,7.513-3.364,7.513-7.513v-0.001v-29.637h73.929v107.434  c0,20.382-16.582,36.963-36.963,36.963c-20.383,0-36.964-16.582-36.964-36.963v-47.743c0-4.149-3.363-7.513-7.513-7.513  c-4.15,0-7.513,3.364-7.513,7.513v47.743c0,28.668,23.323,51.99,51.991,51.99s51.99-23.323,51.99-51.99V235.518V206.48h18.878  v212.953H477.746z"/>
<g>
</g>
<g>
</g>
<g>
</g>
<g>
</g>
<g>
</g>
<g>
</g>
<g>
</g>
<g>
</g>
<g>
</g>
<g>
</g>
<g>
</g>
<g>
</g>
<g>
</g>
<g>
</g>
<g>
</g>
</svg>
